<svg width="41" height="40" viewBox="0 0 41 40" fill="none" xmlns="http://www.w3.org/2000/svg">
<path fill-rule="evenodd" clip-rule="evenodd" d="M4.10369 5.02633C4.0569 5.04839 3.91814 5.06788 3.7953 5.06969C3.67245 5.07146 3.57198 5.09388 3.57198 5.11947C3.57198 5.14506 3.52387 5.16599 3.46504 5.16599C3.40626 5.16599 3.32488 5.18479 3.28426 5.20772C3.24364 5.2307 3.12428 5.28769 3.019 5.3344C2.91373 5.38111 2.81802 5.43037 2.80632 5.44391C2.79462 5.45745 2.72763 5.49988 2.65744 5.53826C2.58726 5.57659 2.50801 5.62888 2.48138 5.65447C2.45471 5.68005 2.37942 5.74286 2.31404 5.79403C2.16721 5.90899 1.7429 6.35675 1.7429 6.39681C1.7429 6.41295 1.69467 6.48278 1.63571 6.55205C1.5768 6.62127 1.50593 6.746 1.47832 6.82913C1.45068 6.91227 1.41278 6.98033 1.39406 6.98033C1.37539 6.98033 1.36007 7.0222 1.36007 7.07337C1.36007 7.12454 1.34433 7.16641 1.32507 7.16641C1.28738 7.16641 1.08903 7.81478 1.03331 8.1201C0.988898 8.36331 0.988898 31.6493 1.03331 31.8925C1.08903 32.1978 1.28738 32.8462 1.32507 32.8462C1.34433 32.8462 1.36007 32.8881 1.36007 32.9393C1.36007 32.9904 1.37539 33.0323 1.39406 33.0323C1.41278 33.0323 1.45068 33.1003 1.47832 33.1835C1.50593 33.2667 1.5768 33.3913 1.63571 33.4606C1.69467 33.5298 1.7429 33.5997 1.7429 33.6158C1.7429 33.6559 2.16721 34.1036 2.31404 34.2186C2.37942 34.2698 2.45471 34.3326 2.48138 34.3582C2.50801 34.3837 2.58726 34.436 2.65744 34.4744C2.72763 34.5127 2.79462 34.5557 2.80632 34.5699C2.84664 34.6187 3.13836 34.7536 3.2037 34.7536C3.23973 34.7536 3.28103 34.7745 3.29549 34.8001C3.30995 34.8257 3.37806 34.8466 3.44688 34.8466C3.5157 34.8466 3.57198 34.8651 3.57198 34.8878C3.57198 34.9103 3.70121 34.945 3.8591 34.9648C4.23436 35.0117 36.7688 35.0117 37.1441 34.9648C37.302 34.945 37.4312 34.9103 37.4312 34.8878C37.4312 34.8651 37.4647 34.8463 37.5056 34.8459C37.6314 34.8448 38.1259 34.6456 38.1968 34.5675C38.2085 34.5546 38.2755 34.5127 38.3457 34.4744C38.4159 34.436 38.4951 34.3837 38.5218 34.3582C38.5484 34.3326 38.6237 34.2698 38.6891 34.2186C38.836 34.1036 39.2603 33.6559 39.2603 33.6158C39.2603 33.5997 39.3085 33.5298 39.3675 33.4606C39.4264 33.3913 39.4972 33.2667 39.5248 33.1835C39.5525 33.1003 39.5904 33.0323 39.6091 33.0323C39.6278 33.0323 39.6431 32.9904 39.6431 32.9393C39.6431 32.8881 39.6588 32.8462 39.6781 32.8462C39.7179 32.8462 39.922 32.1734 39.9673 31.8925C40.0092 31.6333 40.0117 8.34912 39.9699 8.1201C39.9141 7.81478 39.7158 7.16641 39.6781 7.16641C39.6588 7.16641 39.6431 7.12454 39.6431 7.07337C39.6431 7.0222 39.6278 6.98033 39.6091 6.98033C39.5904 6.98033 39.5525 6.91227 39.5248 6.82913C39.4972 6.746 39.4264 6.62127 39.3675 6.55205C39.3085 6.48278 39.2603 6.41295 39.2603 6.39681C39.2603 6.35675 38.836 5.90899 38.6891 5.79403C38.6237 5.74286 38.5484 5.68005 38.5218 5.65447C38.4951 5.62888 38.4159 5.57659 38.3457 5.53826C38.2755 5.49988 38.2085 5.45745 38.1968 5.44391C38.1851 5.43037 38.0894 5.38111 37.9842 5.3344C37.8789 5.28769 37.7595 5.2307 37.7189 5.20772C37.6783 5.18479 37.5969 5.16599 37.5381 5.16599C37.4793 5.16599 37.4312 5.14692 37.4312 5.12361C37.4312 5.1003 37.3116 5.06658 37.1653 5.04871C36.7751 5.00103 4.20425 4.97898 4.10369 5.02633ZM36.07 7.51453C36.07 7.52691 34.687 9.04378 32.9967 10.8854C31.3064 12.727 29.9043 14.2554 29.8809 14.2819C29.8575 14.3085 29.7109 14.4683 29.5551 14.637C28.6036 15.6679 25.8422 18.6628 24.3637 20.2673C23.4115 21.3008 22.6171 22.1463 22.5985 22.1464C22.5798 22.1465 22.4976 22.2092 22.4157 22.2859C22.3338 22.3625 22.2333 22.4252 22.1924 22.4253C22.1515 22.4254 22.1178 22.4411 22.1175 22.4603C22.1172 22.4795 22.0359 22.5341 21.9367 22.5817C21.8375 22.6293 21.7232 22.6869 21.6826 22.7097C21.6419 22.7324 21.5617 22.7511 21.5043 22.7511C21.4469 22.7511 21.3896 22.7693 21.377 22.7916C21.2939 22.9386 19.7093 22.9386 19.6262 22.7916C19.6136 22.7693 19.5563 22.7511 19.4989 22.7511C19.4414 22.7511 19.3612 22.7324 19.3206 22.7097C19.28 22.6869 19.1656 22.6293 19.0664 22.5817C18.9673 22.5341 18.886 22.4795 18.8857 22.4603C18.8854 22.4411 18.8517 22.4254 18.8107 22.4253C18.7698 22.4252 18.6693 22.3625 18.5874 22.2859C18.5055 22.2092 18.4232 22.1465 18.4045 22.1464C18.3858 22.1463 17.836 21.5654 17.1827 20.8553C16.5295 20.1453 14.8639 18.3397 13.4815 16.8429C10.1964 13.2862 4.93315 7.5424 4.93315 7.51421C4.93315 7.50202 11.9389 7.49206 20.5016 7.49206C29.0642 7.49206 36.07 7.50216 36.07 7.51453ZM4.88522 11.0161C7.90655 14.2743 13.1002 19.9608 13.1002 20.0106C13.1002 20.079 3.35266 30.7062 3.28992 30.7062C3.28128 30.7062 3.27422 25.8913 3.27422 20.0063C3.27422 14.1214 3.28001 9.3064 3.28707 9.3064C3.29409 9.3064 4.0133 10.0757 4.88522 11.0161ZM37.7289 20.0063C37.7289 25.8913 37.722 30.7062 37.7136 30.7062C37.6505 30.7062 27.903 20.079 27.903 20.0102C27.903 19.982 29.6783 18.0256 31.8482 15.6626C34.0182 13.2997 36.2146 10.9057 36.7293 10.3427C37.244 9.77975 37.6795 9.31626 37.697 9.31277C37.7146 9.30923 37.7289 14.1214 37.7289 20.0063ZM15.67 22.7627C16.1443 23.2809 16.5852 23.7466 16.6496 23.7978C16.714 23.849 16.8193 23.9432 16.8835 24.0072C16.9478 24.0711 17.0533 24.1653 17.118 24.2165C17.1827 24.2677 17.2609 24.3357 17.2917 24.3677C17.3226 24.3997 17.3683 24.4258 17.3934 24.4258C17.4184 24.4258 17.4389 24.4468 17.4389 24.4724C17.4389 24.498 17.4585 24.5189 17.4823 24.5189C17.5062 24.5189 17.6015 24.5712 17.6942 24.6352C17.7868 24.6992 17.8917 24.7515 17.9273 24.7515C17.9628 24.7515 17.9919 24.7724 17.9919 24.798C17.9919 24.8236 18.0254 24.8452 18.0664 24.846C18.1073 24.8468 18.1749 24.8758 18.2167 24.9105C18.2585 24.9451 18.4308 25.0194 18.5996 25.0754C18.7683 25.1315 18.9397 25.1967 18.9803 25.2203C19.0209 25.2439 19.108 25.2632 19.1738 25.2632C19.2397 25.2632 19.3117 25.2816 19.3339 25.304C19.422 25.3929 20.4851 25.4497 21.0652 25.3965C21.3752 25.3681 21.647 25.3265 21.6692 25.304C21.6914 25.2816 21.7635 25.2632 21.8293 25.2632C21.8951 25.2632 21.9822 25.2439 22.0229 25.2203C22.0635 25.1967 22.2348 25.1315 22.4036 25.0754C22.5724 25.0194 22.7447 24.9451 22.7864 24.9105C22.8282 24.8758 22.8959 24.8468 22.9368 24.846C22.9777 24.8452 23.0112 24.8236 23.0112 24.798C23.0112 24.7724 23.0403 24.7515 23.0759 24.7515C23.1115 24.7515 23.2164 24.6992 23.309 24.6352C23.4016 24.5712 23.497 24.5189 23.5208 24.5189C23.5447 24.5189 23.5642 24.498 23.5642 24.4724C23.5642 24.4468 23.5847 24.4258 23.6098 24.4258C23.6349 24.4258 23.6806 24.3997 23.7114 24.3677C23.7422 24.3357 23.8187 24.269 23.8812 24.2194C23.9438 24.1698 24.0368 24.0895 24.088 24.0409C24.1391 23.9924 24.2457 23.8968 24.3247 23.8287C24.4038 23.7605 24.8571 23.2809 25.3321 22.7627C25.8071 22.2446 26.209 21.8206 26.2253 21.8206C26.2415 21.8206 26.6496 22.2477 27.1321 22.7695C31.0945 27.0556 32.1226 28.1706 33.9684 30.1843C35.1243 31.4452 36.07 32.4867 36.07 32.4987C36.07 32.5107 29.0642 32.5206 20.5016 32.5206C11.9389 32.5206 4.93315 32.5107 4.93315 32.4987C4.93315 32.4699 8.85495 28.1924 11.6095 25.2167C12.8056 23.9246 13.9988 22.6325 14.2611 22.3455C14.5233 22.0584 14.7535 21.8229 14.7727 21.8221C14.7918 21.8213 15.1956 22.2446 15.67 22.7627Z" fill="#E8492A"/>
</svg>
