<svg width="40" height="40" viewBox="0 0 40 40" fill="none" xmlns="http://www.w3.org/2000/svg">
<path fill-rule="evenodd" clip-rule="evenodd" d="M19.2835 0.0127894C19.2682 0.0284035 19.0621 0.0585848 18.8256 0.0797815C18.4295 0.115327 17.7574 0.206874 17.3587 0.279624C17.2682 0.296153 17.1836 0.32664 17.1708 0.347401C17.1579 0.368161 17.081 0.385127 16.9999 0.385127C16.9188 0.385127 16.8403 0.404754 16.8255 0.428742C16.8106 0.45273 16.7531 0.472356 16.6976 0.472356C16.5548 0.472356 15.9363 0.672242 15.6261 0.8187C15.5901 0.83571 15.4381 0.887393 15.2884 0.933581C15.1387 0.979769 15.016 1.03224 15.0159 1.05025C15.0156 1.06826 14.9762 1.08296 14.9282 1.08296C14.8803 1.08296 14.841 1.10259 14.841 1.12658C14.841 1.15056 14.8017 1.17019 14.7538 1.17019C14.7058 1.17019 14.6665 1.18982 14.6665 1.2138C14.6665 1.23779 14.6474 1.25742 14.6241 1.25742C14.5594 1.25742 14.0798 1.48901 14.0632 1.52827C14.0552 1.54719 14.0202 1.56272 13.9853 1.56272C13.9294 1.56272 13.7225 1.67424 13.6634 1.73622C13.6514 1.74882 13.5827 1.78851 13.5108 1.82441C13.4388 1.8603 13.3701 1.90047 13.3581 1.91364C13.3461 1.92686 13.2382 1.99429 13.1182 2.06355C12.9983 2.13276 12.8791 2.21035 12.8534 2.23591C12.8277 2.26147 12.7346 2.33143 12.6465 2.3914C12.5585 2.45137 12.4863 2.51513 12.4861 2.53315C12.4859 2.55116 12.4664 2.56586 12.4427 2.56586C12.419 2.56586 12.365 2.59381 12.3227 2.62801C12.2805 2.6622 12.0955 2.80966 11.9116 2.95568C11.5494 3.24337 10.5819 4.18893 10.3708 4.46165C10.299 4.55438 10.1901 4.68099 10.1288 4.74297C10.0674 4.8049 9.95045 4.95376 9.86885 5.0737C9.7872 5.19364 9.69989 5.31563 9.67477 5.34476C9.55051 5.48891 9.52002 5.53004 9.52002 5.55346C9.52002 5.56746 9.4836 5.61801 9.43912 5.66576C9.39459 5.71352 9.32101 5.83023 9.27556 5.92514C9.23012 6.02 9.17817 6.09785 9.1602 6.09816C9.14223 6.09842 9.12749 6.12808 9.12749 6.16406C9.12749 6.20004 9.11275 6.22953 9.09478 6.22957C9.07681 6.22966 9.00567 6.3376 8.93676 6.46945C8.86785 6.60134 8.79427 6.70924 8.77321 6.70924C8.75219 6.70924 8.73496 6.7485 8.73496 6.79647C8.73496 6.84445 8.71533 6.8837 8.69134 6.8837C8.66736 6.8837 8.64773 6.90765 8.64773 6.93695C8.64773 6.96622 8.5615 7.16741 8.45613 7.384C8.35076 7.60059 8.21106 7.91519 8.14573 8.0831C8.01353 8.42282 7.96826 8.53848 7.9109 8.6828C7.80082 8.9598 7.73182 9.1862 7.73182 9.27047C7.73182 9.32224 7.71438 9.37536 7.69301 9.38857C7.67168 9.40175 7.64368 9.4765 7.63077 9.5547C7.61786 9.63286 7.58733 9.77535 7.56295 9.8713C7.53857 9.96725 7.48754 10.1823 7.44955 10.3492C7.17421 11.5586 7.1145 13.6035 7.31762 14.8652C7.40127 15.3846 7.48483 15.8164 7.51846 15.9031C7.53988 15.9582 7.55736 16.0612 7.55736 16.132C7.55736 16.2029 7.57699 16.2608 7.60098 16.2608C7.62497 16.2608 7.64459 16.3185 7.64459 16.3891C7.64459 16.4597 7.66422 16.5295 7.68821 16.5443C7.7122 16.5592 7.73182 16.6087 7.73182 16.6544C7.73182 16.7778 7.87662 17.209 7.99861 17.4487C8.01981 17.4904 8.03713 17.5544 8.03713 17.5911C8.03713 17.6581 8.05191 17.694 8.18354 17.9467C8.22297 18.0224 8.2552 18.1156 8.2552 18.1539C8.2552 18.1922 8.27482 18.2235 8.29881 18.2235C8.3228 18.2235 8.34243 18.2498 8.34243 18.2819C8.34243 18.3418 8.72925 19.1439 8.777 19.183C8.79166 19.195 8.86179 19.3176 8.93288 19.4555C9.00393 19.5934 9.07681 19.7062 9.09478 19.7063C9.11275 19.7063 9.12749 19.7286 9.12749 19.7557C9.12749 19.7828 9.19618 19.9006 9.28014 20.0175C9.3641 20.1343 9.43279 20.2479 9.43279 20.2698C9.43279 20.2918 9.44915 20.3163 9.46912 20.3243C9.51653 20.3433 9.82532 20.8292 9.82532 20.8848C9.82532 20.9084 9.84273 20.9276 9.86397 20.9276C9.88521 20.9276 9.93484 20.9914 9.97422 21.0693C10.0691 21.2572 10.1364 21.3625 10.2288 21.4677C10.2708 21.5155 10.3051 21.5728 10.3051 21.5951C10.3051 21.6174 10.3738 21.7291 10.4577 21.8435C10.5417 21.9579 10.6104 22.0734 10.6104 22.1001C10.6104 22.1269 10.63 22.1488 10.654 22.1488C10.678 22.1488 10.6976 22.1782 10.6976 22.2142C10.6976 22.2502 10.7168 22.2797 10.7404 22.2797C10.7639 22.2797 10.7955 22.3287 10.8105 22.3887C10.8256 22.4487 10.853 22.4977 10.8715 22.4977C10.89 22.4977 10.9295 22.5566 10.9593 22.6286C10.9891 22.7005 11.0307 22.7594 11.0518 22.7594C11.0729 22.7594 11.0901 22.7782 11.0901 22.8011C11.0901 22.8412 11.2597 23.1175 11.3512 23.2264C11.3756 23.2554 11.3954 23.2996 11.3954 23.3246C11.3954 23.3496 11.4151 23.37 11.4391 23.37C11.4631 23.37 11.4827 23.3901 11.4827 23.4145C11.4827 23.4675 11.7082 23.8216 11.7553 23.8425C11.7733 23.8505 11.788 23.8746 11.788 23.8962C11.788 23.9492 12.0986 24.4349 12.1442 24.4531C12.1642 24.4611 12.1805 24.4861 12.1805 24.5086C12.1805 24.5485 12.3942 24.8968 12.4453 24.9401C12.4594 24.9521 12.4988 25.0257 12.5327 25.1037C12.5666 25.1817 12.6047 25.2454 12.6174 25.2454C12.63 25.2454 12.6774 25.3141 12.7226 25.3981C12.7679 25.4821 12.8214 25.5507 12.8416 25.5507C12.8618 25.5507 12.8783 25.5883 12.8783 25.6344C12.8783 25.6803 12.8947 25.7245 12.9147 25.7325C12.9603 25.7507 13.2709 26.2364 13.2709 26.2894C13.2709 26.3109 13.2952 26.3366 13.325 26.3466C13.4356 26.3834 13.2469 26.4973 13.0297 26.5247C12.9104 26.5398 12.6363 26.5829 12.4204 26.6204C12.2045 26.6579 11.9494 26.6996 11.8534 26.7129C11.7575 26.7263 11.6603 26.7549 11.6375 26.7764C11.6147 26.798 11.5227 26.8156 11.4329 26.8156C11.3432 26.8156 11.2589 26.8331 11.2456 26.8546C11.2324 26.876 11.1478 26.9037 11.0577 26.9161C10.9676 26.9284 10.7663 26.9717 10.6104 27.0122C10.4545 27.0527 10.2435 27.0957 10.1415 27.1077C10.0396 27.1198 9.95617 27.1473 9.95617 27.1689C9.95617 27.1904 9.90684 27.2081 9.84652 27.2081C9.78624 27.2081 9.70281 27.2259 9.66116 27.2476C9.61951 27.2693 9.45787 27.3217 9.30195 27.364C9.14603 27.4063 8.99983 27.4572 8.97702 27.4772C8.95425 27.4971 8.89018 27.5134 8.83466 27.5134C8.77918 27.5134 8.69967 27.5309 8.65802 27.5524C8.61637 27.5738 8.40567 27.6457 8.18978 27.7122C7.97388 27.7788 7.77862 27.8496 7.75581 27.8696C7.73304 27.8896 7.67905 27.9059 7.63587 27.9059C7.59269 27.9059 7.55736 27.9256 7.55736 27.9496C7.55736 27.9735 7.52082 27.9932 7.47615 27.9932C7.40061 27.9932 7.22005 28.068 6.51847 28.39C6.36686 28.4596 6.22459 28.5165 6.20226 28.5165C6.17997 28.5165 6.1617 28.5362 6.1617 28.5602C6.1617 28.5841 6.12245 28.6038 6.07447 28.6038C6.02649 28.6038 5.98724 28.6234 5.98724 28.6474C5.98724 28.6714 5.9592 28.691 5.92496 28.691C5.8557 28.691 5.31959 28.9974 5.29669 29.0501C5.28866 29.0685 5.26455 29.0835 5.243 29.0835C5.1839 29.0835 4.71055 29.3924 4.63008 29.4835C4.59127 29.5274 4.5422 29.5636 4.52105 29.564C4.49985 29.5644 4.42069 29.6183 4.34506 29.6839C4.26948 29.7495 4.13205 29.8648 4.03972 29.94C3.81283 30.1249 3.64357 30.2962 3.50675 30.4792C3.44403 30.5632 3.3817 30.6417 3.36831 30.6537C3.35492 30.6656 3.28623 30.754 3.21566 30.8499C3.14509 30.9459 3.07745 31.0342 3.06532 31.0462C3.01748 31.0935 2.71519 31.7256 2.71567 31.7773C2.71593 31.8077 2.69914 31.8665 2.67837 31.9082C2.52018 32.2254 2.44783 33.0982 2.54195 33.554C2.57165 33.698 2.60554 33.8795 2.61723 33.9575C2.62892 34.0354 2.65596 34.0992 2.67728 34.0992C2.69866 34.0992 2.71615 34.1483 2.71615 34.2082C2.71615 34.2682 2.73577 34.3173 2.75976 34.3173C2.78375 34.3173 2.80337 34.3415 2.80337 34.3711C2.80337 34.4466 3.02764 34.8848 3.11958 34.9888C3.16158 35.0363 3.19591 35.0993 3.19591 35.1287C3.19591 35.1582 3.21065 35.1888 3.22862 35.1969C3.24663 35.2048 3.33408 35.302 3.42301 35.4127C3.61482 35.6515 4.11094 36.1491 4.1573 36.1491C4.17518 36.1491 4.24841 36.2038 4.31998 36.2707C4.3916 36.3376 4.52109 36.4406 4.6078 36.4997C4.6945 36.5587 4.76555 36.6217 4.76573 36.6398C4.7659 36.6578 4.79547 36.6725 4.83145 36.6725C4.86743 36.6725 4.89687 36.689 4.89687 36.7091C4.89687 36.7292 4.97516 36.7832 5.07085 36.829C5.1665 36.8748 5.24501 36.927 5.24531 36.9451C5.24557 36.9631 5.27523 36.9778 5.31121 36.9778C5.3472 36.9778 5.37672 36.9925 5.37681 37.0105C5.3769 37.0285 5.46522 37.0795 5.57308 37.1238C5.68093 37.1682 5.76917 37.2222 5.76917 37.2438C5.76917 37.2654 5.80842 37.2831 5.8564 37.2831C5.90437 37.2831 5.94363 37.2979 5.94363 37.316C5.94363 37.3342 6.00739 37.3765 6.08537 37.4101C6.16331 37.4437 6.32403 37.5172 6.44245 37.5734C6.5609 37.6296 6.68355 37.6756 6.71504 37.6756C6.74653 37.6756 6.7723 37.6952 6.7723 37.7192C6.7723 37.7432 6.80113 37.7628 6.83642 37.7628C6.87166 37.7628 6.96486 37.798 7.04359 37.8411C7.12227 37.8841 7.30933 37.9577 7.45923 38.0046C7.60914 38.0515 7.73182 38.1046 7.73182 38.1227C7.73182 38.1406 7.78089 38.1554 7.84086 38.1554C7.90083 38.1554 7.9499 38.175 7.9499 38.199C7.9499 38.223 7.97986 38.2426 8.0165 38.2426C8.09138 38.2426 8.75934 38.4499 8.8761 38.5093C8.91775 38.5305 8.99137 38.5479 9.03965 38.5479C9.08798 38.5479 9.12749 38.5636 9.12749 38.5829C9.12749 38.6022 9.22069 38.6383 9.33466 38.6633C9.64786 38.7318 10.1414 38.8606 10.2397 38.8994C10.2876 38.9184 10.376 38.9437 10.4359 38.9557C10.4959 38.9676 10.6824 39.0096 10.8503 39.049C11.0182 39.0884 11.2341 39.1306 11.33 39.1429C11.426 39.1551 11.5437 39.182 11.5917 39.2025C11.6397 39.223 11.7476 39.2518 11.8316 39.2665C12.2129 39.3333 12.4423 39.372 12.7257 39.4171C12.8936 39.4438 13.0648 39.4762 13.106 39.4891C13.2251 39.5262 13.7872 39.5998 14.1323 39.6235C14.3062 39.6354 14.4485 39.6617 14.4485 39.6819C14.4485 39.7021 14.5907 39.7279 14.7647 39.7394C14.9386 39.7508 15.4342 39.7928 15.8659 39.8328C17.2992 39.9655 18.1598 39.9998 20.0529 40C21.933 40.0001 22.7338 39.9678 24.1963 39.8326C24.6281 39.7927 25.1237 39.7508 25.2976 39.7394C25.4715 39.7279 25.6138 39.7005 25.6138 39.6784C25.6138 39.6563 25.7411 39.6383 25.8967 39.6383C26.0523 39.6383 26.2632 39.6189 26.3655 39.5953C26.5802 39.5457 27.6455 39.3709 27.9036 39.3429C27.9995 39.3325 28.0967 39.3064 28.1195 39.2849C28.1423 39.2634 28.2194 39.2457 28.2908 39.2457C28.3623 39.2457 28.481 39.2275 28.5547 39.2053C28.7716 39.1397 29.3347 39.0265 29.441 39.0271C29.4949 39.0274 29.5391 39.008 29.5391 38.984C29.5391 38.9601 29.6066 38.9404 29.6892 38.9404C29.7718 38.9404 29.8514 38.9208 29.8662 38.8968C29.8811 38.8728 29.9348 38.8532 29.9856 38.8532C30.0365 38.8532 30.1384 38.8348 30.212 38.8124C30.2857 38.79 30.4736 38.7391 30.6295 38.6993C30.7854 38.6595 30.947 38.6091 30.9887 38.5874C31.0303 38.5657 31.0944 38.5479 31.1311 38.5479C31.1677 38.5479 31.2318 38.5301 31.2734 38.5083C31.3151 38.4864 31.5258 38.4141 31.7417 38.3475C31.9576 38.2809 32.1529 38.2104 32.1756 38.1909C32.1984 38.1714 32.2622 38.1554 32.3174 38.1554C32.3725 38.1554 32.4177 38.1405 32.4177 38.1223C32.4177 38.1042 32.5011 38.0634 32.603 38.0318C32.7892 37.9739 33.0283 37.8772 33.1694 37.8028C33.2111 37.7808 33.2749 37.7628 33.3112 37.7628C33.3475 37.7628 33.3772 37.7432 33.3772 37.7192C33.3772 37.6952 33.4015 37.6756 33.4311 37.6756C33.4996 37.6756 33.9612 37.4466 33.9805 37.403C33.9886 37.385 34.0222 37.3703 34.0553 37.3703C34.0885 37.3703 34.2095 37.318 34.3243 37.2541C34.4391 37.1902 34.6017 37.0996 34.6856 37.0527C34.7696 37.0059 34.8481 36.9552 34.8601 36.94C34.8721 36.9248 34.9604 36.8731 35.0564 36.8252C35.1523 36.7773 35.2521 36.7184 35.2781 36.6944C35.3042 36.6703 35.3799 36.6114 35.4465 36.5634C35.5131 36.5155 35.5935 36.4517 35.6251 36.4217C35.6567 36.3917 35.6947 36.3672 35.7094 36.3672C35.7242 36.3672 35.7854 36.3181 35.8454 36.2581C35.9054 36.1982 35.9703 36.1491 35.9896 36.1491C36.0378 36.1491 36.5288 35.6588 36.7265 35.4131C36.8154 35.3027 36.9225 35.174 36.9645 35.1273C37.0065 35.0805 37.0408 35.0182 37.0408 34.9887C37.0408 34.9592 37.0566 34.9286 37.0758 34.9206C37.1317 34.8974 37.4334 34.2751 37.4334 34.1829C37.4334 34.1369 37.4508 34.0992 37.472 34.0992C37.5113 34.0992 37.5209 34.0639 37.6098 33.5976C37.7003 33.1225 37.6262 32.2191 37.4711 31.9082C37.4504 31.8665 37.4336 31.8077 37.4338 31.7773C37.4343 31.7256 37.132 31.0935 37.0842 31.0462C37.0721 31.0342 37.0044 30.9459 36.9338 30.8499C36.8633 30.754 36.7936 30.6656 36.7789 30.6537C36.7643 30.6417 36.7217 30.5871 36.6844 30.5325C36.58 30.3796 36.2896 30.0793 36.1056 29.934C36.0145 29.8621 35.8785 29.7495 35.8034 29.6839C35.7284 29.6183 35.6521 29.5644 35.6339 29.564C35.6156 29.5636 35.5391 29.5044 35.4639 29.4324C35.3885 29.3605 35.3116 29.3016 35.2929 29.3016C35.2742 29.3016 35.2329 29.277 35.2012 29.2471C35.1695 29.2171 35.0847 29.1632 35.0128 29.1272C34.9408 29.0913 34.8721 29.0514 34.8601 29.0387C34.8023 28.9772 34.2792 28.691 34.2245 28.691C34.1903 28.691 34.1623 28.6714 34.1623 28.6474C34.1623 28.6234 34.123 28.6038 34.075 28.6038C34.0271 28.6038 33.9878 28.5885 33.9878 28.5697C33.9878 28.551 33.8897 28.4977 33.7697 28.4511C33.6498 28.4046 33.5517 28.3512 33.5517 28.3325C33.5517 28.3138 33.5233 28.2985 33.4886 28.2985C33.454 28.2985 33.2749 28.2298 33.0907 28.1458C32.9064 28.0619 32.7189 27.9932 32.6739 27.9932C32.629 27.9932 32.5921 27.9735 32.5921 27.9496C32.5921 27.9256 32.5568 27.9059 32.5136 27.9059C32.4705 27.9059 32.4165 27.8896 32.3937 27.8696C32.3709 27.8496 32.1756 27.7788 31.9597 27.7122C31.7438 27.6457 31.5331 27.5738 31.4915 27.5524C31.4498 27.5309 31.3759 27.5134 31.3273 27.5134C31.2787 27.5134 31.2048 27.4957 31.1632 27.4741C31.1215 27.4525 30.9697 27.401 30.8258 27.3597C30.6818 27.3183 30.53 27.2673 30.4883 27.2463C30.4467 27.2253 30.3644 27.2081 30.3056 27.2081C30.2467 27.2081 30.1876 27.1906 30.1744 27.1691C30.1611 27.1477 30.0765 27.12 29.9864 27.1076C29.8963 27.0953 29.695 27.0522 29.5391 27.0118C29.3832 26.9715 29.1819 26.9284 29.0918 26.9161C29.0017 26.9037 28.9171 26.876 28.9039 26.8546C28.8906 26.8331 28.8064 26.8156 28.7166 26.8156C28.6268 26.8156 28.5348 26.798 28.512 26.7764C28.4892 26.7549 28.3921 26.7263 28.2961 26.7129C28.2002 26.6996 27.945 26.6579 27.7291 26.6204C27.5132 26.5829 27.2391 26.5398 27.1198 26.5247C26.9026 26.4973 26.7139 26.3834 26.8245 26.3466C26.8543 26.3366 26.8786 26.3109 26.8786 26.2894C26.8786 26.2364 27.1893 25.7507 27.2348 25.7325C27.2548 25.7245 27.2712 25.6803 27.2712 25.6344C27.2712 25.5883 27.2877 25.5507 27.3079 25.5507C27.3281 25.5507 27.3816 25.4821 27.4269 25.3981C27.4721 25.3141 27.5205 25.2454 27.5346 25.2454C27.5487 25.2454 27.5871 25.1768 27.6201 25.0928C27.653 25.0088 27.6915 24.9401 27.7055 24.9401C27.7196 24.9401 27.7681 24.8715 27.8133 24.7875C27.8585 24.7035 27.912 24.6348 27.9322 24.6348C27.9525 24.6348 27.969 24.6154 27.969 24.5917C27.969 24.5679 28.0573 24.4107 28.1653 24.2423C28.2732 24.0739 28.3615 23.9257 28.3615 23.9129C28.3615 23.9002 28.3959 23.8527 28.4379 23.8073C28.4798 23.7619 28.5534 23.6499 28.6013 23.5583C28.6492 23.4668 28.7135 23.3654 28.7441 23.3332C28.7747 23.3009 28.8304 23.2151 28.8679 23.1426C28.9054 23.07 29.0031 22.9175 29.085 22.8035C29.1668 22.6896 29.2338 22.5741 29.2338 22.5471C29.2338 22.5199 29.2521 22.4977 29.2745 22.4977C29.2969 22.4977 29.3287 22.4551 29.3453 22.403C29.3618 22.3508 29.4091 22.272 29.4502 22.2278C29.4914 22.1835 29.5528 22.0937 29.5866 22.0281C29.6204 21.9626 29.6581 21.8991 29.6703 21.8871C29.7278 21.8308 29.9317 21.4914 29.9317 21.4519C29.9317 21.4274 29.9513 21.4074 29.9753 21.4074C29.9993 21.4074 30.0189 21.3864 30.0189 21.3608C30.0189 21.3353 30.0679 21.25 30.1279 21.1714C30.1879 21.0927 30.237 21.0057 30.237 20.978C30.237 20.9503 30.2566 20.9276 30.2806 20.9276C30.3046 20.9276 30.3242 20.8998 30.3242 20.8658C30.3242 20.8318 30.3389 20.7975 30.3569 20.7895C30.404 20.7686 30.6295 20.4145 30.6295 20.3615C30.6295 20.3371 30.6491 20.317 30.6731 20.317C30.6971 20.317 30.7167 20.2876 30.7167 20.2516C30.7167 20.2156 30.7332 20.1862 30.7533 20.1862C30.7735 20.1862 30.8274 20.1079 30.8732 20.0122C30.9191 19.9165 30.9713 19.838 30.9893 19.8377C31.0073 19.8375 31.022 19.8094 31.022 19.7754C31.022 19.7415 31.0386 19.7071 31.059 19.6991C31.1012 19.6825 31.3026 19.3363 31.5117 18.9213C31.5902 18.7654 31.6691 18.6313 31.6871 18.6233C31.7052 18.6153 31.7199 18.5711 31.7199 18.5252C31.7199 18.4792 31.7395 18.4416 31.7635 18.4416C31.7875 18.4416 31.8071 18.3925 31.8071 18.3325C31.8071 18.2726 31.8267 18.2235 31.8507 18.2235C31.8747 18.2235 31.8943 18.1922 31.8943 18.1539C31.8943 18.1156 31.9213 18.0322 31.9544 17.9685C32.0265 17.8296 32.0855 17.6873 32.156 17.482C32.1848 17.3981 32.2243 17.2901 32.2436 17.2422C32.3651 16.9406 32.4177 16.7691 32.4177 16.6743C32.4177 16.6148 32.4373 16.5661 32.4613 16.5661C32.4853 16.5661 32.5049 16.4974 32.5049 16.4135C32.5049 16.3295 32.5245 16.2608 32.5485 16.2608C32.5725 16.2608 32.5921 16.2029 32.5921 16.132C32.5921 16.0612 32.6096 15.9582 32.631 15.9031C32.6645 15.8168 32.7133 15.5668 32.8334 14.8652C32.9983 13.9025 32.9903 12.242 32.8148 10.9816C32.7723 10.6758 32.6929 10.29 32.5866 9.8713C32.5622 9.77535 32.5316 9.63286 32.5187 9.5547C32.5058 9.4765 32.4778 9.40175 32.4565 9.38857C32.4351 9.37536 32.4177 9.31687 32.4177 9.2586C32.4177 9.16906 32.3448 8.94994 32.1571 8.47563C32.1381 8.42766 32.0696 8.25102 32.005 8.0831C31.9403 7.91519 31.8693 7.74374 31.8472 7.70209C31.8251 7.66043 31.8071 7.59828 31.8071 7.56396C31.8071 7.52963 31.7916 7.49505 31.7726 7.48702C31.7334 7.47049 31.5018 6.99082 31.5018 6.92614C31.5018 6.9028 31.4821 6.8837 31.4582 6.8837C31.4342 6.8837 31.4145 6.84445 31.4145 6.79647C31.4145 6.7485 31.3981 6.70924 31.3779 6.70924C31.3577 6.70924 31.2856 6.60623 31.2178 6.48027C31.1498 6.35435 31.0829 6.24148 31.069 6.22948C31.0551 6.21749 31.0143 6.1488 30.9783 6.07683C30.9424 6.00487 30.8885 5.92004 30.8585 5.88837C30.8285 5.85666 30.8039 5.80703 30.8039 5.77803C30.8039 5.74907 30.7647 5.69708 30.7167 5.66249C30.6687 5.62791 30.6295 5.58351 30.6295 5.56379C30.6295 5.53091 30.6034 5.4941 30.4747 5.34476C30.4496 5.31563 30.3626 5.19364 30.2814 5.0737C30.2001 4.95376 30.1221 4.84581 30.1079 4.83382C30.0936 4.82182 29.9746 4.68496 29.8433 4.52965C29.4706 4.08875 28.6822 3.31332 28.2743 2.9863C27.8661 2.65902 27.8474 2.64449 27.5974 2.45861C27.5019 2.38765 27.4173 2.31407 27.4093 2.29505C27.4013 2.27608 27.3669 2.26055 27.333 2.26055C27.299 2.26055 27.2712 2.24586 27.2711 2.22784C27.2711 2.20983 27.1681 2.13782 27.0421 2.06773C26.9162 1.99769 26.8034 1.92895 26.7914 1.91504C26.7794 1.90108 26.7107 1.8603 26.6388 1.82441C26.5668 1.78851 26.4981 1.74882 26.4861 1.73622C26.427 1.67424 26.2201 1.56272 26.1642 1.56272C26.1293 1.56272 26.0943 1.54719 26.0863 1.52827C26.0698 1.48901 25.5901 1.25742 25.5254 1.25742C25.5021 1.25742 25.483 1.23779 25.483 1.2138C25.483 1.18982 25.4437 1.17019 25.3957 1.17019C25.3478 1.17019 25.3085 1.15056 25.3085 1.12658C25.3085 1.10259 25.2709 1.08296 25.2249 1.08296C25.1789 1.08296 25.1348 1.06717 25.1268 1.04789C25.1188 1.02862 24.9552 0.958964 24.7633 0.89315C24.5714 0.827292 24.3752 0.755197 24.3272 0.73291C24.1522 0.651569 23.5501 0.472356 23.4519 0.472356C23.3964 0.472356 23.3389 0.45273 23.324 0.428742C23.3092 0.404754 23.2296 0.385127 23.147 0.385127C23.0644 0.385127 22.9969 0.368074 22.9969 0.34727C22.9969 0.326422 22.9135 0.296328 22.8116 0.280365C22.7096 0.264402 22.4299 0.220351 22.1901 0.182494C21.9502 0.14468 21.5871 0.0962242 21.3832 0.0748094C20.8907 0.0231697 19.319 -0.0232798 19.2835 0.0127894ZM21.3396 2.43903C21.7114 2.48866 22.0941 2.53951 22.1901 2.55203C22.286 2.56455 22.3831 2.59242 22.406 2.61392C22.4287 2.63547 22.5122 2.65309 22.5913 2.65309C22.6705 2.65309 22.7352 2.67271 22.7352 2.6967C22.7352 2.72069 22.7929 2.74032 22.8635 2.74032C23.0138 2.74032 23.6357 2.9481 23.9231 3.09433C23.9648 3.11553 24.0183 3.13285 24.0419 3.13285C24.107 3.13285 24.5868 3.36427 24.6034 3.40369C24.6114 3.42262 24.6405 3.43815 24.6681 3.43815C24.734 3.43815 25.1952 3.66848 25.214 3.71074C25.222 3.72871 25.2461 3.74345 25.2677 3.74345C25.2892 3.74345 25.4142 3.81214 25.5455 3.8961C25.6767 3.98006 25.8047 4.04875 25.8298 4.04875C25.8549 4.04875 25.8755 4.06838 25.8755 4.09237C25.8755 4.11636 25.896 4.13598 25.9211 4.13598C25.9461 4.13598 26.0158 4.18505 26.0757 4.24502C26.1357 4.30499 26.1986 4.3541 26.2155 4.3541C26.2324 4.35414 26.3032 4.40321 26.373 4.46314C26.4427 4.52311 26.5114 4.57235 26.5256 4.57261C26.5398 4.57287 26.6434 4.65626 26.7557 4.75797C26.868 4.85964 27.0719 5.04099 27.2089 5.16092C27.5409 5.45162 27.7362 5.64858 27.8755 5.83342C27.9389 5.91751 28.0742 6.074 28.1762 6.18111C28.2781 6.28828 28.3615 6.39295 28.3615 6.41371C28.3615 6.43451 28.4106 6.50059 28.4706 6.56056C28.5305 6.62053 28.5796 6.68464 28.5796 6.70301C28.5796 6.72137 28.6179 6.77759 28.6648 6.82792C28.7756 6.94681 29.0594 7.39059 29.0594 7.44498C29.0594 7.46809 29.0741 7.49356 29.0921 7.50159C29.1323 7.51947 29.2493 7.71321 29.3774 7.97407C29.4303 8.08201 29.4884 8.17687 29.5064 8.18486C29.5244 8.19288 29.5391 8.23702 29.5391 8.28299C29.5391 8.329 29.5587 8.3666 29.5827 8.3666C29.6067 8.3666 29.6263 8.39312 29.6263 8.42552C29.6263 8.45793 29.6754 8.57673 29.7354 8.68952C29.7954 8.80231 29.8444 8.9328 29.8444 8.97951C29.8444 9.02622 29.864 9.06443 29.888 9.06443C29.912 9.06443 29.9317 9.10957 29.9317 9.16474C29.9317 9.21992 29.9473 9.28368 29.9663 9.30649C29.9854 9.32926 30.0364 9.46568 30.0797 9.60961C30.123 9.75354 30.1761 9.90536 30.1977 9.94702C30.2193 9.98867 30.237 10.0807 30.237 10.1516C30.237 10.2225 30.2566 10.2926 30.2806 10.3074C30.3046 10.3223 30.3242 10.398 30.3242 10.4758C30.3242 10.5535 30.341 10.6358 30.3615 10.6585C30.3989 10.7002 30.4952 11.3019 30.5881 12.0738C30.6684 12.7416 30.6002 14.2366 30.4605 14.8711C30.4374 14.9758 30.3956 15.1792 30.3675 15.3231C30.3394 15.4671 30.2986 15.6189 30.2767 15.6605C30.2548 15.7022 30.237 15.7761 30.237 15.8247C30.237 15.8733 30.2198 15.9472 30.1987 15.9889C30.1778 16.0305 30.1252 16.1823 30.082 16.3263C30.0388 16.4702 29.9873 16.6066 29.9675 16.6294C29.9478 16.6522 29.9317 16.716 29.9317 16.7711C29.9317 16.8263 29.912 16.8714 29.888 16.8714C29.864 16.8714 29.8444 16.9011 29.8444 16.9375C29.8444 16.9738 29.8253 17.0376 29.8019 17.0792C29.7022 17.2569 29.5391 17.6337 29.5391 17.6865C29.5391 17.718 29.5244 17.744 29.5064 17.7442C29.4884 17.7445 29.4348 17.8279 29.3871 17.9296C29.3395 18.0313 29.2904 18.1243 29.278 18.1363C29.2656 18.1483 29.2261 18.217 29.1902 18.2889C29.1543 18.3609 29.1149 18.4296 29.1026 18.4416C29.0479 18.4951 28.8413 18.8363 28.8413 18.8731C28.8413 18.8956 28.8242 18.9206 28.8033 18.9286C28.7554 18.947 28.4488 19.426 28.4488 19.4826C28.4488 19.5057 28.433 19.5312 28.4138 19.5392C28.3667 19.5588 27.8818 20.3088 27.8818 20.3621C27.8818 20.3853 27.8634 20.4042 27.8411 20.4042C27.8187 20.4042 27.7869 20.4469 27.7703 20.499C27.7538 20.5511 27.7034 20.6333 27.6584 20.6817C27.6133 20.73 27.5765 20.7937 27.5765 20.8231C27.5765 20.8526 27.5618 20.8832 27.5438 20.8913C27.4967 20.9122 27.2712 21.2663 27.2712 21.3192C27.2712 21.3437 27.2515 21.3637 27.2275 21.3637C27.2036 21.3637 27.1839 21.3915 27.1839 21.4255C27.1839 21.4595 27.1692 21.4938 27.1512 21.5019C27.1042 21.5228 26.8786 21.8769 26.8786 21.9298C26.8786 21.9543 26.859 21.9743 26.835 21.9743C26.811 21.9743 26.7914 21.9931 26.7914 22.016C26.7914 22.0561 26.6218 22.3324 26.5303 22.4414C26.506 22.4703 26.4861 22.5145 26.4861 22.5395C26.4861 22.5645 26.4707 22.585 26.4519 22.585C26.433 22.585 26.3594 22.6928 26.2883 22.8247C26.2172 22.9566 26.1443 23.0645 26.1263 23.0646C26.1083 23.0646 26.0936 23.0846 26.0936 23.1088C26.0936 23.133 26.0249 23.2506 25.9409 23.37C25.857 23.4895 25.7883 23.607 25.7883 23.6313C25.7883 23.6555 25.7686 23.6753 25.7446 23.6753C25.7207 23.6753 25.701 23.6954 25.701 23.7199C25.701 23.7728 25.4755 24.1269 25.4284 24.1478C25.4104 24.1558 25.3957 24.1806 25.3957 24.203C25.3957 24.2529 25.0813 24.7383 25.0359 24.7584C25.0179 24.7664 25.0032 24.8106 25.0032 24.8565C25.0032 24.9025 24.9867 24.9401 24.9664 24.9401C24.9462 24.9401 24.8927 25.0088 24.8475 25.0928C24.8023 25.1768 24.7502 25.2454 24.7316 25.2454C24.7131 25.2454 24.6979 25.2645 24.6979 25.2877C24.6979 25.311 24.6096 25.4665 24.5016 25.6334C24.3937 25.8002 24.3054 25.9562 24.3054 25.98C24.3054 26.0038 24.2894 26.0298 24.2697 26.0378C24.2242 26.0564 23.3458 27.4153 23.3458 27.4672C23.3458 27.4886 23.3312 27.5127 23.3131 27.5207C23.2679 27.5408 23.0405 27.8947 23.0405 27.945C23.0405 27.9675 23.0258 27.9924 23.0078 28.0004C22.9608 28.0213 22.7352 28.3754 22.7352 28.4284C22.7352 28.4529 22.7156 28.4729 22.6916 28.4729C22.6676 28.4729 22.648 28.5008 22.648 28.5347C22.648 28.5687 22.6333 28.603 22.6153 28.6111C22.5682 28.6319 22.3427 28.9861 22.3427 29.039C22.3427 29.0635 22.3273 29.0835 22.3085 29.0835C22.2896 29.0835 22.2161 29.1914 22.1449 29.3233C22.0738 29.4551 22.0009 29.5631 21.9829 29.5632C21.9649 29.5632 21.9502 29.5837 21.9502 29.6087C21.9502 29.6337 21.9303 29.6779 21.906 29.7069C21.8145 29.8158 21.6449 30.0921 21.6449 30.1322C21.6449 30.1551 21.6253 30.1739 21.6013 30.1739C21.5773 30.1739 21.5576 30.194 21.5576 30.2184C21.5576 30.2714 21.3321 30.6255 21.2851 30.6464C21.267 30.6544 21.2523 30.6887 21.2523 30.7227C21.2523 30.7567 21.2327 30.7845 21.2087 30.7845C21.1847 30.7845 21.1651 30.8046 21.1651 30.829C21.1651 30.882 20.9396 31.2361 20.8925 31.257C20.8745 31.265 20.8598 31.2899 20.8598 31.3125C20.8598 31.3627 20.6325 31.7166 20.5872 31.7367C20.5692 31.7448 20.5545 31.7791 20.5545 31.8131C20.5545 31.847 20.5349 31.8749 20.5109 31.8749C20.4869 31.8749 20.4673 31.9141 20.4673 31.9621C20.4673 32.0101 20.4508 32.0493 20.4305 32.0493C20.4103 32.0493 20.3568 32.118 20.3116 32.202C20.2664 32.2859 20.2165 32.3546 20.2008 32.3546C20.185 32.3546 20.1619 32.3939 20.1493 32.4419C20.1199 32.5544 20.0296 32.5544 20.0002 32.4419C19.9876 32.3939 19.9645 32.3546 19.9488 32.3546C19.933 32.3546 19.8832 32.2859 19.8379 32.202C19.7927 32.118 19.7392 32.0493 19.719 32.0493C19.6988 32.0493 19.6822 32.0101 19.6822 31.9621C19.6822 31.9141 19.6626 31.8749 19.6386 31.8749C19.6146 31.8749 19.595 31.847 19.595 31.8131C19.595 31.7791 19.5803 31.7448 19.5623 31.7367C19.5171 31.7166 19.2897 31.3627 19.2897 31.3125C19.2897 31.2899 19.275 31.265 19.257 31.257C19.2099 31.2361 18.9844 30.882 18.9844 30.829C18.9844 30.8046 18.9648 30.7845 18.9408 30.7845C18.9168 30.7845 18.8972 30.7567 18.8972 30.7227C18.8972 30.6887 18.8825 30.6544 18.8644 30.6464C18.8174 30.6255 18.5919 30.2714 18.5919 30.2184C18.5919 30.194 18.5722 30.1739 18.5482 30.1739C18.5243 30.1739 18.5046 30.1551 18.5046 30.1322C18.5046 30.0921 18.3351 29.8158 18.2436 29.7069C18.2192 29.6779 18.1993 29.6337 18.1993 29.6087C18.1993 29.5837 18.1846 29.5632 18.1666 29.5632C18.1486 29.5631 18.0757 29.4551 18.0046 29.3233C17.9335 29.1914 17.8599 29.0835 17.841 29.0835C17.8222 29.0835 17.8068 29.0635 17.8068 29.039C17.8068 28.9861 17.5813 28.6319 17.5342 28.6111C17.5162 28.603 17.5015 28.5687 17.5015 28.5347C17.5015 28.5008 17.4819 28.4729 17.4579 28.4729C17.4339 28.4729 17.4143 28.4337 17.4143 28.3857C17.4143 28.3377 17.3977 28.2985 17.3775 28.2985C17.3573 28.2985 17.3038 28.2298 17.2586 28.1458C17.2133 28.0619 17.1612 27.9932 17.1427 27.9932C17.1241 27.9932 17.109 27.9556 17.109 27.9096C17.109 27.8636 17.0926 27.8194 17.0726 27.8114C17.0271 27.7932 16.7164 27.3075 16.7164 27.2545C16.7164 27.233 16.7001 27.2088 16.6801 27.2008C16.6345 27.1826 16.3239 26.6969 16.3239 26.6439C16.3239 26.6224 16.3092 26.5982 16.2912 26.5902C16.2438 26.5692 16.0186 26.2298 16.0186 26.1795C16.0186 26.1561 15.9793 26.1087 15.9314 26.0741C15.8834 26.0395 15.8441 25.9945 15.8441 25.974C15.8441 25.9535 15.7558 25.8002 15.6479 25.6334C15.5399 25.4665 15.4516 25.311 15.4516 25.2877C15.4516 25.2645 15.4364 25.2454 15.4179 25.2454C15.3994 25.2454 15.3472 25.1768 15.302 25.0928C15.2568 25.0088 15.2033 24.9401 15.1831 24.9401C15.1628 24.9401 15.1463 24.9009 15.1463 24.8529C15.1463 24.8049 15.1267 24.7657 15.1027 24.7657C15.0787 24.7657 15.0591 24.7447 15.0591 24.7191C15.0591 24.6936 15.01 24.6083 14.95 24.5297C14.8901 24.451 14.841 24.364 14.841 24.3363C14.841 24.3086 14.8214 24.2859 14.7974 24.2859C14.7734 24.2859 14.7538 24.2565 14.7538 24.2205C14.7538 24.1845 14.7384 24.1551 14.7195 24.1551C14.7007 24.1551 14.6271 24.0472 14.556 23.9153C14.4848 23.7835 14.412 23.6755 14.394 23.6755C14.3759 23.6754 14.3612 23.6566 14.3612 23.6336C14.3612 23.5935 14.1917 23.3172 14.1002 23.2083C14.0758 23.1793 14.0559 23.1352 14.0559 23.1102C14.0559 23.0852 14.0363 23.0647 14.0123 23.0647C13.9883 23.0647 13.9687 23.0447 13.9687 23.0202C13.9687 22.9672 13.7432 22.6131 13.6961 22.5922C13.6781 22.5842 13.6634 22.5499 13.6634 22.5159C13.6634 22.4819 13.6487 22.4539 13.6307 22.4536C13.6127 22.4533 13.5608 22.3755 13.5153 22.2806C13.4699 22.1857 13.3963 22.069 13.3518 22.0212C13.3073 21.9735 13.2709 21.9233 13.2709 21.9098C13.2709 21.8714 13.0348 21.5181 12.9983 21.5019C12.9803 21.4938 12.9656 21.4595 12.9656 21.4255C12.9656 21.3915 12.9459 21.3637 12.922 21.3637C12.898 21.3637 12.8783 21.3245 12.8783 21.2765C12.8783 21.2285 12.8632 21.1893 12.8446 21.1893C12.8261 21.1893 12.774 21.1206 12.7287 21.0366C12.6835 20.9527 12.63 20.884 12.6098 20.884C12.5896 20.884 12.573 20.8463 12.573 20.8004C12.573 20.7544 12.5567 20.7103 12.5367 20.7022C12.4911 20.684 12.1805 20.1984 12.1805 20.1453C12.1805 20.1238 12.1658 20.0997 12.1478 20.0916C12.1007 20.0707 11.8752 19.7166 11.8752 19.6637C11.8752 19.6392 11.8556 19.6192 11.8316 19.6192C11.8076 19.6192 11.788 19.5987 11.788 19.5737C11.788 19.5487 11.768 19.5045 11.7435 19.4756C11.719 19.4466 11.5629 19.2168 11.3966 18.9649C11.2303 18.7131 11.0737 18.4833 11.0486 18.4543C11.0235 18.4253 11.0029 18.3713 11.0029 18.3344C11.0029 18.2974 10.9833 18.2671 10.9593 18.2671C10.9353 18.2671 10.9157 18.2377 10.9157 18.2017C10.9157 18.1657 10.9009 18.1361 10.883 18.1359C10.865 18.1356 10.8115 18.0473 10.7642 17.9396C10.7168 17.8319 10.6629 17.7437 10.6442 17.7437C10.6256 17.7437 10.6104 17.714 10.6104 17.6777C10.6104 17.6414 10.5925 17.5776 10.5707 17.536C10.3427 17.1014 9.99978 16.203 9.99978 16.0401C9.99978 15.9936 9.98016 15.9555 9.95617 15.9555C9.93218 15.9555 9.91255 15.8868 9.91255 15.8029C9.91255 15.7189 9.8955 15.6502 9.87461 15.6502C9.85376 15.6502 9.82545 15.5668 9.81176 15.4649C9.79806 15.3629 9.75571 15.1421 9.71764 14.9742C9.54828 14.2275 9.47379 12.8148 9.56359 12.052C9.6438 11.3706 9.74049 10.752 9.78175 10.6564C9.80243 10.6084 9.82934 10.5103 9.8415 10.4383C9.88032 10.2089 9.91814 10.0482 9.95438 9.95853C9.97379 9.91055 10.0254 9.75354 10.0691 9.60961C10.1128 9.46568 10.1641 9.32926 10.1832 9.30649C10.2022 9.28368 10.2179 9.21992 10.2179 9.16474C10.2179 9.10957 10.2375 9.06443 10.2615 9.06443C10.2855 9.06443 10.3051 9.02884 10.3051 8.98536C10.3051 8.94187 10.3542 8.80457 10.4141 8.68027C10.4741 8.55597 10.5232 8.43455 10.5232 8.41043C10.5232 8.38631 10.5428 8.3666 10.5668 8.3666C10.5908 8.3666 10.6104 8.32734 10.6104 8.27937C10.6104 8.23139 10.63 8.19214 10.654 8.19214C10.678 8.19214 10.6976 8.16174 10.6976 8.12462C10.6976 8.08751 10.7663 7.94973 10.8503 7.81849C10.9342 7.68721 11.0029 7.5606 11.0029 7.53709C11.0029 7.51354 11.0203 7.49431 11.0414 7.49431C11.0626 7.49431 11.0908 7.45998 11.1041 7.41798C11.1438 7.29198 11.3234 7.00142 11.4282 6.89356C11.4822 6.83799 11.5263 6.77667 11.5263 6.75735C11.5263 6.73798 11.5852 6.66057 11.6571 6.58525C11.7291 6.50997 11.788 6.42623 11.788 6.39919C11.788 6.37219 11.8616 6.27606 11.9515 6.18565C12.0415 6.09524 12.174 5.94642 12.2459 5.85492C12.4743 5.56453 13.1497 4.92104 13.2261 4.92104C13.2507 4.92104 13.2709 4.90404 13.2709 4.88327C13.2709 4.86247 13.3641 4.77463 13.478 4.68801C13.592 4.60139 13.7048 4.51534 13.7289 4.49681C13.7529 4.47827 13.851 4.40504 13.9469 4.33404C14.0429 4.26308 14.1279 4.1895 14.1359 4.17048C14.1439 4.15151 14.1782 4.13598 14.2122 4.13598C14.2462 4.13598 14.2741 4.12124 14.2741 4.10327C14.2742 4.0853 14.3821 4.01417 14.514 3.94526C14.6459 3.87634 14.7538 3.80277 14.7538 3.7817C14.7538 3.76068 14.7914 3.74345 14.8374 3.74345C14.8834 3.74345 14.9275 3.72871 14.9355 3.71074C14.9547 3.66752 15.4154 3.43658 15.4807 3.43745C15.5087 3.43784 15.5381 3.42262 15.5461 3.40369C15.5627 3.36427 16.0425 3.13285 16.1076 3.13285C16.1313 3.13285 16.1847 3.11553 16.2264 3.09433C16.492 2.95917 17.1321 2.74032 17.2617 2.74032C17.3187 2.74032 17.3776 2.72069 17.3925 2.6967C17.4073 2.67271 17.4869 2.65309 17.5695 2.65309C17.6521 2.65309 17.7196 2.6359 17.7196 2.61488C17.7196 2.59386 17.8226 2.56446 17.9485 2.54955C18.0745 2.53459 18.4425 2.48561 18.7663 2.44068C19.5851 2.32707 20.4965 2.32646 21.3396 2.43903ZM19.4423 7.14539C19.4275 7.16938 19.3083 7.189 19.1775 7.189C19.0466 7.189 18.9055 7.20627 18.8638 7.22743C18.8222 7.24858 18.6507 7.29913 18.4828 7.33978C18.3149 7.38043 18.1589 7.43181 18.1361 7.45401C18.1133 7.47616 18.0495 7.49431 17.9943 7.49431C17.9392 7.49431 17.894 7.51393 17.894 7.53792C17.894 7.56191 17.8676 7.58153 17.8353 7.58153C17.803 7.58153 17.7196 7.60853 17.65 7.6415C17.5803 7.67452 17.4595 7.72838 17.3816 7.76123C17.3036 7.79402 17.2398 7.83572 17.2398 7.85386C17.2398 7.87201 17.2104 7.88684 17.1744 7.88684C17.1384 7.88684 17.109 7.90646 17.109 7.93045C17.109 7.95444 17.0697 7.97407 17.0217 7.97407C16.9738 7.97407 16.9345 7.98946 16.9345 8.00826C16.9345 8.0271 16.8707 8.07996 16.7928 8.12576C16.7148 8.17155 16.6297 8.22978 16.6037 8.25512C16.5776 8.28046 16.5011 8.34043 16.4335 8.3884C16.2258 8.53587 15.4516 9.32677 15.4516 9.39154C15.4516 9.40318 15.4075 9.46272 15.3535 9.52387C15.2995 9.58501 15.1823 9.7569 15.0931 9.90584C15.0039 10.0547 14.9107 10.2003 14.8859 10.2293C14.8612 10.2582 14.841 10.3018 14.841 10.3261C14.841 10.3504 14.8052 10.4346 14.7614 10.5133C14.7177 10.592 14.645 10.7643 14.5999 10.8962C14.5549 11.0282 14.5024 11.1548 14.4833 11.1776C14.4641 11.2003 14.4485 11.2728 14.4485 11.3385C14.4485 11.4043 14.4315 11.4686 14.4107 11.4815C14.3899 11.4943 14.3591 11.5985 14.3424 11.713C14.3257 11.8275 14.2953 12.0291 14.2748 12.1611C14.2544 12.293 14.2378 12.6561 14.2378 12.9679C14.2378 13.2798 14.2544 13.6429 14.2748 13.7748C14.2953 13.9067 14.3257 14.1084 14.3424 14.2229C14.3591 14.3373 14.3899 14.4415 14.4107 14.4544C14.4315 14.4673 14.4485 14.5344 14.4485 14.6035C14.4485 14.6726 14.4656 14.7397 14.4865 14.7526C14.5074 14.7656 14.5364 14.8358 14.551 14.9087C14.5655 14.9816 14.6349 15.1636 14.7051 15.3131C14.7753 15.4625 14.8395 15.6044 14.8478 15.6284C14.8687 15.6891 15.2467 16.3213 15.278 16.3481C15.2921 16.3601 15.3612 16.4484 15.4317 16.5443C15.584 16.7516 16.3949 17.5693 16.4483 17.5693C16.4687 17.5693 16.5432 17.6245 16.6139 17.6921C16.6846 17.7596 16.7709 17.8284 16.8058 17.845C16.8406 17.8616 16.9476 17.9237 17.0435 17.983C17.2526 18.1121 17.9297 18.4416 17.9861 18.4416C18.0081 18.4416 18.0602 18.4589 18.1018 18.4801C18.5236 18.6947 19.18 18.8017 20.0748 18.8017C20.9695 18.8017 21.6259 18.6947 22.0477 18.4801C22.0894 18.4589 22.1414 18.4416 22.1634 18.4416C22.2198 18.4416 22.8969 18.1121 23.106 17.983C23.2019 17.9237 23.309 17.8616 23.3438 17.845C23.3786 17.8284 23.4649 17.7596 23.5356 17.6921C23.6063 17.6245 23.6811 17.5693 23.7018 17.5693C23.7504 17.5693 24.6979 16.6282 24.6979 16.5799C24.6979 16.5599 24.7424 16.4946 24.7968 16.4349C24.8877 16.335 25.2669 15.7296 25.3017 15.6284C25.31 15.6044 25.3742 15.4625 25.4444 15.3131C25.5146 15.1636 25.584 14.9816 25.5985 14.9087C25.6132 14.8358 25.6422 14.7656 25.663 14.7526C25.6839 14.7397 25.701 14.6726 25.701 14.6035C25.701 14.5344 25.718 14.4673 25.7388 14.4544C25.7597 14.4415 25.7904 14.3373 25.8071 14.2229C25.8239 14.1084 25.8543 13.9067 25.8747 13.7748C25.8951 13.6429 25.9117 13.2798 25.9117 12.9679C25.9117 12.6561 25.8951 12.293 25.8747 12.1611C25.8543 12.0291 25.8239 11.828 25.8072 11.714C25.7906 11.6001 25.7598 11.5068 25.739 11.5068C25.7181 11.5068 25.701 11.4421 25.701 11.3629C25.701 11.2838 25.6854 11.2003 25.6662 11.1776C25.6471 11.1548 25.5946 11.0282 25.5496 10.8962C25.5045 10.7643 25.4318 10.592 25.3881 10.5133C25.3443 10.4346 25.3085 10.3504 25.3085 10.3261C25.3085 10.3018 25.2883 10.2582 25.2636 10.2293C25.2389 10.2003 25.1456 10.0547 25.0564 9.90584C24.9672 9.7569 24.85 9.58501 24.796 9.52387C24.7421 9.46272 24.6979 9.40318 24.6979 9.39154C24.6979 9.32285 23.9595 8.56718 23.7166 8.38727C23.6206 8.31618 23.5323 8.24666 23.5203 8.2327C23.5083 8.21879 23.4347 8.17029 23.3568 8.12493C23.2788 8.07957 23.215 8.0271 23.215 8.00826C23.215 7.98946 23.1758 7.97407 23.1278 7.97407C23.0798 7.97407 23.0405 7.95444 23.0405 7.93045C23.0405 7.90646 23.0111 7.88684 22.9751 7.88684C22.9391 7.88684 22.9097 7.87087 22.9097 7.85138C22.9097 7.83184 22.8371 7.7877 22.7483 7.75325C22.6596 7.71875 22.4992 7.64643 22.392 7.59244C22.2848 7.53844 22.1651 7.49431 22.126 7.49431C22.0869 7.49431 22.0362 7.47616 22.0134 7.45401C21.9906 7.43181 21.8346 7.38043 21.6667 7.33978C21.4988 7.29913 21.3273 7.24858 21.2857 7.22743C21.244 7.20627 21.1029 7.189 20.972 7.189C20.8412 7.189 20.722 7.16938 20.7072 7.14539C20.6913 7.1197 20.4313 7.10177 20.0748 7.10177C19.7182 7.10177 19.4582 7.1197 19.4423 7.14539ZM20.7726 9.53861C21.0943 9.59893 21.663 9.80919 21.7321 9.89333C21.7441 9.90794 21.8203 9.94671 21.9013 9.97955C21.9824 10.0124 22.0943 10.0848 22.1501 10.1406C22.2059 10.1964 22.2632 10.242 22.2774 10.242C22.3192 10.242 22.7023 10.6418 22.842 10.8311C22.9127 10.9269 22.9814 11.0151 22.9947 11.0271C23.008 11.0391 23.0483 11.1078 23.0842 11.1797C23.1201 11.2517 23.1598 11.3204 23.1725 11.3324C23.1852 11.3444 23.2314 11.4425 23.2752 11.5505C23.319 11.6584 23.3724 11.7808 23.394 11.8224C23.4155 11.8641 23.4331 11.9475 23.4331 12.0078C23.4331 12.0681 23.4499 12.1175 23.4704 12.1175C23.5081 12.1175 23.5747 12.6468 23.5774 12.9679C23.5798 13.2515 23.5103 13.8195 23.4701 13.8442C23.4498 13.8569 23.4331 13.9056 23.4331 13.9524C23.4331 13.9993 23.4148 14.0718 23.3926 14.1134C23.3703 14.1551 23.3163 14.2823 23.2726 14.3961C23.229 14.51 23.1785 14.6032 23.1605 14.6033C23.1425 14.6034 23.1278 14.6427 23.1278 14.6907C23.1278 14.7387 23.1081 14.7779 23.0842 14.7779C23.0602 14.7779 23.0399 14.8025 23.0392 14.8325C23.0374 14.9026 22.8219 15.1659 22.5147 15.4732C22.1921 15.796 22.1147 15.8549 21.7784 16.0336C21.621 16.1172 21.4736 16.2026 21.4508 16.2232C21.428 16.2439 21.3544 16.2608 21.2872 16.2608C21.2201 16.2608 21.1651 16.2773 21.1651 16.2975C21.1651 16.3651 20.5368 16.4571 20.0748 16.4571C19.6127 16.4571 18.9844 16.3651 18.9844 16.2975C18.9844 16.2773 18.9294 16.2608 18.8623 16.2608C18.7951 16.2608 18.7215 16.2439 18.6987 16.2232C18.6759 16.2026 18.5285 16.1172 18.3711 16.0336C18.0349 15.8549 17.9574 15.796 17.6348 15.4732C17.3276 15.1659 17.1121 14.9026 17.1104 14.8325C17.1096 14.8025 17.0893 14.7779 17.0653 14.7779C17.0414 14.7779 17.0217 14.7387 17.0217 14.6907C17.0217 14.6427 17.007 14.6034 16.989 14.6033C16.971 14.6032 16.9205 14.51 16.8769 14.3961C16.8332 14.2823 16.7792 14.1551 16.7569 14.1134C16.7347 14.0718 16.7164 13.9993 16.7164 13.9524C16.7164 13.9056 16.6997 13.8569 16.6794 13.8442C16.6392 13.8195 16.5697 13.2515 16.5721 12.9679C16.5748 12.6468 16.6414 12.1175 16.6791 12.1175C16.6996 12.1175 16.7164 12.0681 16.7164 12.0078C16.7164 11.9475 16.734 11.8641 16.7556 11.8224C16.7771 11.7808 16.8305 11.6584 16.8743 11.5505C16.9181 11.4425 16.9643 11.3444 16.977 11.3324C16.9897 11.3204 17.0292 11.2517 17.0649 11.1797C17.1745 10.9587 17.79 10.242 17.8703 10.242C17.8855 10.242 17.9499 10.1937 18.0136 10.1347C18.0772 10.0757 18.1892 10.0032 18.2624 9.97366C18.3357 9.94405 18.4054 9.90794 18.4174 9.89333C18.4899 9.80501 19.2121 9.54541 19.3972 9.54114C19.47 9.53944 19.5688 9.52029 19.6168 9.49861C19.7218 9.45112 20.4382 9.47593 20.7726 9.53861ZM14.8916 28.8109C14.9718 28.9249 15.0653 29.0721 15.0993 29.138C15.1333 29.204 15.1774 29.258 15.1973 29.258C15.2172 29.258 15.2335 29.2874 15.2335 29.3234C15.2335 29.3594 15.2494 29.3888 15.2688 29.3888C15.2881 29.3888 15.3368 29.4632 15.3769 29.5541C15.417 29.645 15.4846 29.7579 15.527 29.8049C15.5695 29.8519 15.6435 29.9653 15.6915 30.0569C15.7395 30.1485 15.8131 30.2605 15.855 30.3059C15.897 30.3512 15.9314 30.3986 15.9314 30.4111C15.9314 30.4525 16.2505 30.9368 16.2876 30.9517C16.3075 30.9597 16.3239 31.0022 16.3239 31.0462C16.3239 31.0902 16.3403 31.1327 16.3602 31.1407C16.4058 31.1589 16.7164 31.6446 16.7164 31.6976C16.7164 31.7192 16.7311 31.7433 16.7491 31.7513C16.7962 31.7722 17.0217 32.1263 17.0217 32.1792C17.0217 32.2037 17.0414 32.2238 17.0653 32.2238C17.0893 32.2238 17.109 32.2516 17.109 32.2856C17.109 32.3196 17.1237 32.3539 17.1417 32.3619C17.1887 32.3828 17.4143 32.7369 17.4143 32.7899C17.4143 32.8143 17.4297 32.8344 17.4485 32.8344C17.4673 32.8344 17.5409 32.9422 17.6121 33.0741C17.6832 33.206 17.7561 33.3139 17.7741 33.314C17.7921 33.3141 17.8068 33.3346 17.8068 33.3596C17.8068 33.3846 17.8267 33.4288 17.851 33.4577C17.9425 33.5667 18.1121 33.843 18.1121 33.8831C18.1121 33.906 18.1317 33.9248 18.1557 33.9248C18.1797 33.9248 18.1993 33.9448 18.1993 33.9693C18.1993 34.0222 18.4249 34.3763 18.4719 34.3972C18.4899 34.4053 18.5046 34.4396 18.5046 34.4736C18.5046 34.5076 18.5243 34.5354 18.5482 34.5354C18.5722 34.5354 18.5919 34.5554 18.5919 34.5799C18.5919 34.6328 18.8174 34.9869 18.8644 35.0078C18.8825 35.0159 18.8972 35.0418 18.8972 35.0654C18.8972 35.114 19.1078 35.4274 19.2306 35.5614C19.3391 35.68 19.5328 35.8002 19.6153 35.8002C19.6521 35.8002 19.6822 35.8198 19.6822 35.8438C19.6822 35.8697 19.8422 35.8874 20.0748 35.8874C20.3074 35.8874 20.4673 35.8697 20.4673 35.8438C20.4673 35.8198 20.4974 35.8002 20.5342 35.8002C20.6167 35.8002 20.8104 35.68 20.919 35.5614C21.0417 35.4274 21.2523 35.114 21.2523 35.0654C21.2523 35.0418 21.267 35.0159 21.2851 35.0078C21.3321 34.9869 21.5576 34.6328 21.5576 34.5799C21.5576 34.5554 21.5773 34.5354 21.6013 34.5354C21.6253 34.5354 21.6449 34.5076 21.6449 34.4736C21.6449 34.4396 21.6596 34.4053 21.6776 34.3972C21.7246 34.3763 21.9502 34.0222 21.9502 33.9693C21.9502 33.9448 21.9698 33.9248 21.9938 33.9248C22.0178 33.9248 22.0374 33.906 22.0374 33.8831C22.0374 33.843 22.207 33.5667 22.2985 33.4577C22.3228 33.4288 22.3427 33.3846 22.3427 33.3596C22.3427 33.3346 22.3574 33.3141 22.3754 33.314C22.3934 33.3139 22.4663 33.206 22.5375 33.0741C22.6086 32.9422 22.6822 32.8344 22.701 32.8344C22.7198 32.8344 22.7352 32.8143 22.7352 32.7899C22.7352 32.7369 22.9608 32.3828 23.0078 32.3619C23.0258 32.3539 23.0405 32.3196 23.0405 32.2856C23.0405 32.2516 23.0602 32.2238 23.0842 32.2238C23.1081 32.2238 23.1278 32.2037 23.1278 32.1792C23.1278 32.1263 23.3533 31.7722 23.4004 31.7513C23.4184 31.7433 23.4331 31.7192 23.4331 31.6976C23.4331 31.6446 23.7437 31.1589 23.7893 31.1407C23.8093 31.1327 23.8256 31.0902 23.8256 31.0462C23.8256 31.0022 23.842 30.9597 23.8619 30.9517C23.899 30.9368 24.2181 30.4525 24.2181 30.4111C24.2181 30.3986 24.2525 30.3512 24.2945 30.3059C24.3364 30.2605 24.41 30.1485 24.458 30.0569C24.506 29.9653 24.58 29.8519 24.6225 29.8049C24.6649 29.7579 24.7325 29.645 24.7726 29.5541C24.8127 29.4632 24.8614 29.3888 24.8807 29.3888C24.9001 29.3888 24.916 29.3594 24.916 29.3234C24.916 29.2874 24.9323 29.258 24.9522 29.258C24.9721 29.258 25.0162 29.204 25.0502 29.138C25.0842 29.0721 25.1784 28.9238 25.2597 28.8085C25.3688 28.6538 25.4258 28.6071 25.4779 28.6301C25.5167 28.6473 25.6907 28.6702 25.8646 28.6809C26.0385 28.6917 26.1808 28.7163 26.1808 28.7357C26.1808 28.755 26.3035 28.7804 26.4534 28.7922C26.6033 28.804 26.9124 28.8466 27.1403 28.887C27.3682 28.9274 27.6332 28.9705 27.7291 28.9828C27.8251 28.9952 27.9222 29.0229 27.945 29.0444C27.9678 29.0659 28.0697 29.0835 28.1714 29.0835C28.2732 29.0835 28.3685 29.1032 28.3833 29.1271C28.3982 29.1511 28.4533 29.1705 28.5058 29.1702C28.6257 29.1696 29.5345 29.3838 29.6366 29.4368C29.6783 29.4584 29.7606 29.4761 29.8194 29.4761C29.8783 29.4761 29.9386 29.4957 29.9535 29.5197C29.9683 29.5437 30.0191 29.5633 30.0662 29.5633C30.1557 29.5633 30.8132 29.7629 30.9451 29.83C30.9867 29.8512 31.0604 29.8686 31.1086 29.8686C31.157 29.8686 31.1965 29.8882 31.1965 29.9122C31.1965 29.9362 31.2282 29.9558 31.267 29.9558C31.3644 29.9558 31.782 30.1011 31.7998 30.1412C31.8078 30.1592 31.8424 30.1739 31.8767 30.1739C31.9111 30.1739 31.9732 30.1919 32.0149 30.2138C32.0565 30.2358 32.1691 30.2875 32.265 30.3286C32.361 30.3698 32.5168 30.4401 32.6112 30.485C32.7057 30.5297 32.8087 30.5664 32.8402 30.5664C32.8717 30.5664 32.8977 30.5811 32.8979 30.5991C32.8982 30.6171 32.9816 30.6708 33.0833 30.7184C33.185 30.7661 33.278 30.8151 33.29 30.8275C33.302 30.8399 33.3707 30.8794 33.4426 30.9154C33.5146 30.9514 33.5931 30.9958 33.6171 31.0141C33.7343 31.1037 33.9954 31.2643 34.0237 31.2643C34.0414 31.2643 34.0841 31.3035 34.1187 31.3515C34.1532 31.3995 34.1976 31.4387 34.2174 31.4387C34.2975 31.4387 34.906 32.0313 35.0145 32.2149C35.0599 32.2918 35.1124 32.3546 35.1312 32.3546C35.15 32.3546 35.1654 32.3939 35.1654 32.4419C35.1654 32.4898 35.1804 32.5291 35.1987 32.5291C35.217 32.5291 35.2563 32.6314 35.286 32.7564C35.3288 32.9367 35.3289 33.0317 35.2864 33.2144C35.2569 33.3412 35.2177 33.445 35.1991 33.445C35.1806 33.445 35.1654 33.4842 35.1654 33.5322C35.1654 33.5802 35.1458 33.6194 35.1218 33.6194C35.0978 33.6194 35.0782 33.6484 35.0782 33.6837C35.0782 33.7522 34.2809 34.579 34.2149 34.579C34.1934 34.579 34.1207 34.6263 34.0534 34.6842C33.9861 34.742 33.8799 34.8156 33.8176 34.8477C33.7553 34.8798 33.6784 34.9306 33.6467 34.9606C33.615 34.9906 33.561 35.0151 33.5268 35.0151C33.4925 35.0151 33.4644 35.0347 33.4644 35.0587C33.4644 35.0827 33.4252 35.1023 33.3772 35.1023C33.3292 35.1023 33.29 35.1176 33.29 35.1362C33.29 35.1548 33.2018 35.2088 33.0941 35.2561C32.9864 35.3035 32.8981 35.3569 32.8978 35.3749C32.8976 35.3929 32.8594 35.4076 32.8128 35.4076C32.7662 35.4076 32.716 35.4273 32.7012 35.4513C32.6863 35.4753 32.6361 35.4949 32.5896 35.4949C32.543 35.4949 32.5049 35.5145 32.5049 35.5385C32.5049 35.5625 32.4804 35.5823 32.4504 35.5825C32.4204 35.5827 32.2977 35.6312 32.1778 35.6902C32.0579 35.7492 31.9254 35.7981 31.8834 35.7988C31.8414 35.7996 31.8071 35.8198 31.8071 35.8438C31.8071 35.8678 31.7676 35.8874 31.7192 35.8874C31.671 35.8874 31.5973 35.905 31.5557 35.9266C31.4506 35.981 30.9101 36.1703 30.6731 36.2357C30.5652 36.2655 30.4376 36.3062 30.3896 36.3262C30.3416 36.3461 30.1846 36.3952 30.0407 36.4352C29.8968 36.4752 29.7339 36.5254 29.6788 36.5466C29.6237 36.5679 29.5219 36.5852 29.4524 36.5852C29.383 36.5852 29.3141 36.6049 29.2992 36.6289C29.2844 36.6528 29.2241 36.6725 29.1652 36.6725C29.1063 36.6725 29.0241 36.6899 28.9824 36.7112C28.9005 36.7532 28.4963 36.8389 28.197 36.8778C28.0945 36.8912 28.0001 36.9192 27.9872 36.94C27.9744 36.9608 27.8806 36.9778 27.7789 36.9778C27.6771 36.9778 27.5752 36.9956 27.5525 37.0174C27.5297 37.0391 27.4129 37.0657 27.293 37.0763C27.173 37.0869 26.8983 37.1293 26.6824 37.1706C26.2405 37.2551 25.7195 37.326 25.3303 37.3547C25.1864 37.3652 25.0294 37.3921 24.9814 37.4144C24.9334 37.4366 24.7372 37.4619 24.5452 37.4707C24.1695 37.4879 23.0915 37.5627 22.2119 37.6327C21.5017 37.6892 18.6931 37.6895 17.9376 37.6332C17.6138 37.609 17.0348 37.5665 16.651 37.5387C15.8604 37.4814 15.3595 37.4351 14.8846 37.3752C14.7047 37.3526 14.4005 37.3142 14.2086 37.2898C14.0167 37.2655 13.683 37.2119 13.4671 37.1706C13.2513 37.1293 12.9765 37.0869 12.8565 37.0763C12.7366 37.0657 12.6198 37.0391 12.597 37.0174C12.5742 36.9956 12.4712 36.9778 12.3681 36.9778C12.2649 36.9778 12.1805 36.9581 12.1805 36.9342C12.1805 36.9102 12.1364 36.8906 12.0824 36.8908C11.9402 36.891 11.2562 36.7569 11.1671 36.7112C11.1254 36.6899 11.0432 36.6725 10.9843 36.6725C10.9254 36.6725 10.8651 36.6528 10.8503 36.6289C10.8354 36.6049 10.7653 36.5852 10.6944 36.5852C10.6236 36.5852 10.5315 36.5674 10.4898 36.5457C10.4482 36.524 10.2865 36.4728 10.1306 36.4319C9.9747 36.391 9.80788 36.3423 9.7599 36.3237C9.71193 36.3051 9.58435 36.266 9.47641 36.2368C9.36846 36.2075 9.16238 36.1366 9.01845 36.079C8.87453 36.0215 8.72358 35.9745 8.68301 35.9745C8.64245 35.9746 8.59714 35.955 8.58231 35.931C8.56748 35.907 8.50746 35.8874 8.44889 35.8874C8.39032 35.8874 8.34243 35.8678 8.34243 35.8438C8.34243 35.8198 8.31273 35.8002 8.27639 35.8002C8.20988 35.8002 8.17839 35.7876 7.91365 35.6549C7.83375 35.6149 7.7405 35.5821 7.70648 35.5821C7.67246 35.5821 7.64459 35.5625 7.64459 35.5385C7.64459 35.5145 7.60652 35.4949 7.55994 35.4949C7.51336 35.4949 7.46316 35.4753 7.44833 35.4513C7.4335 35.4273 7.3833 35.4076 7.33672 35.4076C7.29014 35.4076 7.25189 35.3929 7.25167 35.3749C7.25141 35.3569 7.16309 35.3035 7.0554 35.2561C6.94768 35.2088 6.85953 35.1548 6.85953 35.1362C6.85953 35.1176 6.82028 35.1023 6.7723 35.1023C6.72433 35.1023 6.68507 35.0849 6.68507 35.0634C6.68507 35.0421 6.63601 35.0122 6.57604 34.9972C6.51607 34.9821 6.467 34.9506 6.467 34.9271C6.467 34.9035 6.43756 34.8843 6.40158 34.8843C6.3656 34.8843 6.33616 34.8646 6.33616 34.8407C6.33616 34.8167 6.31165 34.797 6.28164 34.797C6.25168 34.797 6.17012 34.7479 6.10038 34.688C6.03068 34.628 5.9561 34.579 5.9346 34.579C5.86861 34.579 5.07133 33.7522 5.07133 33.6837C5.07133 33.6484 5.05171 33.6194 5.02772 33.6194C5.00373 33.6194 4.9841 33.5802 4.9841 33.5322C4.9841 33.4842 4.96836 33.445 4.94908 33.445C4.87254 33.445 4.81854 32.9919 4.86722 32.7581C4.89343 32.6321 4.93046 32.5291 4.94947 32.5291C4.96853 32.5291 4.9841 32.4898 4.9841 32.4419C4.9841 32.3939 4.9995 32.3546 5.0183 32.3546C5.03714 32.3546 5.08965 32.2918 5.13505 32.2149C5.24352 32.0313 5.85203 31.4387 5.93215 31.4387C5.95187 31.4387 5.99627 31.3995 6.03085 31.3515C6.06544 31.3035 6.10945 31.2643 6.12864 31.2643C6.16109 31.2643 6.50538 31.0528 6.55423 31.0029C6.56622 30.9907 6.63492 30.9512 6.70688 30.9153C6.77884 30.8794 6.84754 30.8399 6.85953 30.8275C6.87153 30.8151 6.96451 30.7661 7.06622 30.7184C7.16789 30.6708 7.25128 30.6171 7.25158 30.5991C7.25184 30.5811 7.2778 30.5664 7.30929 30.5664C7.34078 30.5664 7.44379 30.5297 7.53826 30.485C7.63273 30.4401 7.78852 30.3698 7.88447 30.3286C7.98043 30.2875 8.093 30.2358 8.13465 30.2138C8.1763 30.1919 8.23845 30.1739 8.27277 30.1739C8.3071 30.1739 8.34169 30.1592 8.34971 30.1412C8.36751 30.1011 8.78512 29.9558 8.88255 29.9558C8.92132 29.9558 8.95303 29.9362 8.95303 29.9122C8.95303 29.8882 8.99255 29.8686 9.04087 29.8686C9.08915 29.8686 9.16277 29.8512 9.20443 29.83C9.33627 29.7629 9.99381 29.5633 10.0833 29.5633C10.1305 29.5633 10.1812 29.5437 10.196 29.5197C10.2109 29.4957 10.2712 29.4761 10.3301 29.4761C10.389 29.4761 10.4712 29.4584 10.5129 29.4368C10.615 29.3838 11.5238 29.1696 11.6437 29.1702C11.6962 29.1705 11.7513 29.1511 11.7662 29.1271C11.781 29.1032 11.8763 29.0835 11.9781 29.0835C12.0798 29.0835 12.1817 29.0659 12.2045 29.0444C12.2273 29.0229 12.3244 28.9952 12.4204 28.9828C12.5163 28.9705 12.7813 28.9281 13.0092 28.8886C13.7218 28.7651 13.9366 28.7329 14.2844 28.6974C14.47 28.6785 14.6352 28.6497 14.6515 28.6334C14.7082 28.5767 14.7465 28.605 14.8916 28.8109Z" fill="#E8492A"/>
</svg>
