<svg width="41" height="40" viewBox="0 0 41 40" fill="none" xmlns="http://www.w3.org/2000/svg">
<path fill-rule="evenodd" clip-rule="evenodd" d="M7.94752 0.0306184C7.93184 0.0559612 7.86896 0.0766804 7.80787 0.0766804C7.68069 0.0766804 7.23888 0.190876 7.12554 0.253077C7.08372 0.276021 7.01965 0.294777 6.98322 0.294777C6.94674 0.294777 6.91692 0.314406 6.91692 0.338396C6.91692 0.362387 6.8775 0.382016 6.82933 0.382016C6.78116 0.382016 6.74166 0.396759 6.74157 0.41473C6.74148 0.432701 6.6528 0.483736 6.54451 0.528097C6.43621 0.572458 6.34762 0.626459 6.34762 0.64805C6.34762 0.669685 6.31972 0.687351 6.28556 0.687351C6.25145 0.687351 6.21698 0.702051 6.20893 0.720066C6.20091 0.73808 6.11635 0.810881 6.02102 0.881893C5.69949 1.12132 5.5869 1.2288 3.91689 2.89013C2.23212 4.56616 2.00703 4.79974 1.77313 5.11471C1.70188 5.21068 1.628 5.29573 1.60891 5.30372C1.58986 5.31174 1.57427 5.33586 1.57427 5.35741C1.57427 5.37892 1.50854 5.49996 1.42822 5.62641C1.34787 5.75282 1.25437 5.92006 1.22043 5.99801C1.18654 6.07595 1.14388 6.13977 1.12566 6.13977C1.10745 6.13977 1.09256 6.1655 1.09256 6.197C1.09256 6.22849 1.05262 6.33658 1.00383 6.43717C0.955006 6.5378 0.9032 6.67925 0.888705 6.75162C0.874166 6.82394 0.845132 6.89369 0.824155 6.9066C0.803179 6.91951 0.786012 6.98777 0.786012 7.05835C0.786012 7.12893 0.768364 7.18663 0.746818 7.18663C0.725273 7.18663 0.696589 7.26026 0.683057 7.35021C0.669569 7.44019 0.624244 7.69044 0.582379 7.90635C0.472811 8.47153 0.472461 10.1284 0.58181 10.9379C0.625558 11.2618 0.671584 11.62 0.684108 11.7339C0.696633 11.8479 0.724703 11.9411 0.746468 11.9411C0.768189 11.9411 0.786012 12.0134 0.786012 12.1016C0.786012 12.1899 0.805412 12.3224 0.829104 12.396C0.882574 12.5622 1.05109 13.2292 1.08073 13.392C1.09278 13.4583 1.1201 13.5233 1.14139 13.5363C1.16271 13.5495 1.18014 13.5986 1.18014 13.6455C1.18014 13.6924 1.1977 13.7648 1.21916 13.8065C1.24066 13.8481 1.29098 14 1.33101 14.1439C1.37108 14.2879 1.42047 14.4449 1.44084 14.4929C1.4612 14.5409 1.50153 14.6488 1.53048 14.7328C1.55943 14.8167 1.59884 14.9247 1.61806 14.9727C1.63729 15.0207 1.67766 15.1286 1.70779 15.2126C1.73792 15.2966 1.79117 15.434 1.82616 15.5179C1.9243 15.7536 1.99117 15.9218 2.12093 16.2595C2.1624 16.3674 2.21403 16.4898 2.23566 16.5315C2.25725 16.5731 2.27495 16.6369 2.27495 16.6732C2.27495 16.7096 2.2897 16.7394 2.30779 16.7394C2.32588 16.7395 2.37869 16.8327 2.42524 16.9466C2.47175 17.0605 2.59134 17.3303 2.69102 17.5462C2.79069 17.7621 2.89789 18.0026 2.92924 18.0806C2.9606 18.1585 3.00356 18.2223 3.02471 18.2223C3.04591 18.2223 3.0632 18.2465 3.0632 18.2762C3.0632 18.3446 3.29316 18.8063 3.33691 18.8257C3.35495 18.8337 3.36975 18.8779 3.36975 18.9239C3.36975 18.9698 3.38946 19.0075 3.41354 19.0075C3.43763 19.0075 3.45733 19.0317 3.45733 19.0613C3.45733 19.1298 3.68729 19.5915 3.73104 19.6109C3.74908 19.6189 3.76388 19.6532 3.76388 19.6872C3.76388 19.7212 3.78359 19.749 3.80767 19.749C3.83176 19.749 3.85146 19.7668 3.85146 19.7884C3.85146 19.8252 3.9877 20.073 4.29736 20.5996C4.36786 20.7195 4.43666 20.852 4.45019 20.894C4.46372 20.936 4.49219 20.9703 4.51347 20.9703C4.53471 20.9703 4.55214 20.9998 4.55214 21.0358C4.55214 21.0718 4.57185 21.1012 4.59593 21.1012C4.62002 21.1012 4.63972 21.1213 4.63972 21.1457C4.63972 21.1987 4.86617 21.5528 4.91342 21.5737C4.93151 21.5818 4.94627 21.6059 4.94627 21.6274C4.94627 21.6805 5.25816 22.1662 5.30392 22.1844C5.32398 22.1924 5.3404 22.2366 5.3404 22.2825C5.3404 22.3286 5.35586 22.3662 5.37473 22.3662C5.39365 22.3662 5.44672 22.4299 5.49271 22.5079C5.53869 22.5859 5.59886 22.6724 5.6264 22.7002C5.65395 22.728 5.74337 22.8556 5.82513 22.9837C5.90689 23.1119 5.98892 23.2233 6.00744 23.2313C6.02592 23.2393 6.04107 23.272 6.04107 23.304C6.04107 23.336 6.05618 23.3687 6.07466 23.3767C6.11749 23.3952 6.4352 23.8291 6.4352 23.8691C6.4352 23.8856 6.45986 23.9239 6.48994 23.9542C6.52007 23.9845 6.5841 24.0638 6.63227 24.1304C6.68044 24.197 6.74451 24.2773 6.77459 24.3089C6.80472 24.3405 6.82933 24.3785 6.82933 24.3933C6.82933 24.4081 6.8786 24.4693 6.93881 24.5293C6.99903 24.5893 7.04829 24.6542 7.04829 24.6735C7.04829 24.6929 7.10741 24.7703 7.17967 24.8456C7.25193 24.9209 7.31104 24.9982 7.31104 25.0175C7.31104 25.0367 7.38002 25.1252 7.46432 25.2142C7.54862 25.3033 7.61759 25.3873 7.61759 25.4009C7.61759 25.4146 7.6422 25.4512 7.67233 25.4822C7.7854 25.599 7.92413 25.77 7.92413 25.7926C7.92413 25.8055 7.96845 25.8618 8.02267 25.9177C8.07688 25.9735 8.16061 26.0738 8.20878 26.1405C8.25696 26.2072 8.35058 26.3197 8.4168 26.3905C8.48305 26.4613 8.53722 26.5325 8.53722 26.5488C8.53722 26.565 8.66667 26.7151 8.82494 26.8822C8.98316 27.0494 9.16507 27.2548 9.22914 27.3388C9.29325 27.4227 9.40519 27.5512 9.47792 27.6243C9.55062 27.6974 9.69881 27.8623 9.8072 27.9908C9.91558 28.1193 10.3146 28.5373 10.694 28.9198C11.0733 29.3023 11.3837 29.6259 11.3837 29.6387C11.3837 29.6516 11.424 29.697 11.4734 29.7396C11.5765 29.8287 12.5297 30.7143 12.6803 30.861C12.7358 30.915 12.7895 30.9592 12.7997 30.9592C12.81 30.9592 12.9807 31.1162 13.1792 31.3081C13.3777 31.5001 13.56 31.6571 13.5844 31.6571C13.6088 31.6571 13.6606 31.6915 13.6996 31.7334C13.7614 31.8 14.0766 32.072 14.3981 32.3364C14.4543 32.3826 14.543 32.4565 14.5952 32.5005C14.6473 32.5446 14.7568 32.6329 14.8384 32.6968C14.9201 32.7607 15.0087 32.8333 15.0355 32.8582C15.0623 32.883 15.163 32.9616 15.2593 33.0327C15.3557 33.1038 15.4605 33.1865 15.4923 33.2165C15.5242 33.2464 15.5655 33.271 15.5841 33.271C15.6027 33.271 15.6752 33.32 15.7452 33.38C15.8152 33.4399 15.8863 33.489 15.9033 33.4891C15.9202 33.4891 15.9834 33.5382 16.0436 33.5981C16.1038 33.6581 16.1653 33.7072 16.1801 33.7072C16.1949 33.7072 16.2346 33.7317 16.2682 33.7617C16.4032 33.8824 16.4613 33.9253 16.4894 33.9253C16.5057 33.9253 16.5509 33.961 16.5899 34.0047C16.6288 34.0484 16.7247 34.1214 16.803 34.1668C16.8813 34.2123 16.9453 34.2648 16.9453 34.2837C16.9453 34.3025 16.9712 34.3179 17.0027 34.3179C17.0343 34.3179 17.1025 34.3571 17.1542 34.4051C17.2059 34.4531 17.2602 34.4923 17.2749 34.4923C17.2895 34.4923 17.3661 34.5414 17.445 34.6014C17.524 34.6614 17.6114 34.7104 17.6392 34.7104C17.667 34.7104 17.6898 34.7301 17.6898 34.7541C17.6898 34.778 17.7193 34.7977 17.7555 34.7977C17.7916 34.7977 17.8212 34.8129 17.8212 34.8314C17.8212 34.8499 17.8901 34.9021 17.9744 34.9473C18.0587 34.9925 18.1277 35.046 18.1277 35.0662C18.1277 35.0865 18.1479 35.103 18.1724 35.103C18.2245 35.103 18.5488 35.3081 18.6724 35.4193C18.7191 35.4612 18.7729 35.4956 18.792 35.4956C18.8111 35.4956 18.9345 35.5643 19.0663 35.6483C19.1981 35.7322 19.3266 35.8009 19.3518 35.8009C19.377 35.8009 19.3977 35.8158 19.3977 35.8339C19.3977 35.852 19.4618 35.8947 19.54 35.9286C19.6183 35.9625 19.7433 36.036 19.8178 36.0919C19.8924 36.1478 19.9843 36.1935 20.0222 36.1935C20.0601 36.1935 20.0976 36.2116 20.1057 36.2338C20.1189 36.2704 20.5466 36.5296 20.7877 36.6472C20.8417 36.6736 20.8861 36.7098 20.8863 36.7278C20.8864 36.7458 20.911 36.7605 20.9407 36.7605C21.0095 36.7605 21.4729 36.9895 21.4924 37.0332C21.5005 37.0511 21.5431 37.0659 21.5873 37.0659C21.6314 37.0659 21.6741 37.0806 21.6822 37.0986C21.6902 37.1166 21.953 37.2589 22.2661 37.4148C22.5792 37.5708 22.8419 37.7131 22.8499 37.7311C22.858 37.749 22.9122 37.7638 22.9704 37.7638C23.0286 37.7638 23.0762 37.7834 23.0762 37.8074C23.0762 37.8314 23.1107 37.8516 23.1529 37.8524C23.195 37.8532 23.2678 37.8826 23.3145 37.9179C23.3613 37.9531 23.4351 37.9819 23.4787 37.9819C23.5223 37.9819 23.5579 38.0015 23.5579 38.0255C23.5579 38.0495 23.5962 38.0691 23.6429 38.0691C23.6897 38.0691 23.7401 38.0888 23.755 38.1127C23.7699 38.1367 23.8203 38.1564 23.8671 38.1564C23.9138 38.1564 23.9521 38.176 23.9521 38.2C23.9521 38.224 23.9787 38.2436 24.0112 38.2436C24.0438 38.2436 24.1631 38.2927 24.2763 38.3527C24.3895 38.4126 24.5206 38.4617 24.5675 38.4617C24.6144 38.4617 24.6527 38.4813 24.6527 38.5053C24.6527 38.5293 24.7003 38.5489 24.7586 38.5489C24.8168 38.5489 24.871 38.5636 24.879 38.5817C24.8926 38.6122 25.0762 38.6878 25.441 38.8133C25.5253 38.8422 25.6285 38.883 25.6703 38.9037C25.7121 38.9245 25.786 38.9415 25.8345 38.9415C25.883 38.9415 25.9227 38.9611 25.9227 38.9851C25.9227 39.0091 25.9528 39.0288 25.9896 39.0288C26.0471 39.0288 26.5982 39.1935 26.8642 39.2902C27.0347 39.3521 27.2623 39.4146 27.5868 39.4884C27.7675 39.5295 27.9495 39.5803 27.9913 39.6013C28.0331 39.6222 28.1228 39.6394 28.1905 39.6394C28.2583 39.6394 28.3325 39.6571 28.3554 39.6788C28.3782 39.7005 28.4856 39.7277 28.594 39.7393C28.7024 39.7508 28.9783 39.7932 29.2071 39.8335C29.4359 39.8737 29.8104 39.9273 30.0392 39.9525C30.521 40.0056 31.9635 40.0175 32.3164 39.9713C32.6421 39.9287 33.3706 39.7595 33.5644 39.6815C33.6126 39.6621 33.7506 39.6113 33.871 39.5687C34.144 39.4721 35.0045 39.0332 35.0242 38.9805C35.0322 38.959 35.0667 38.9415 35.1008 38.9415C35.1349 38.9415 35.1629 38.9232 35.1629 38.9008C35.1629 38.8784 35.1974 38.8492 35.2395 38.8358C35.2816 38.8224 35.3999 38.7328 35.5023 38.6366C35.6048 38.5404 35.7035 38.4617 35.7218 38.4617C35.7716 38.4617 36.3854 37.8571 36.5861 37.6104C36.6824 37.492 37.3574 36.8009 38.086 36.0747C38.8146 35.3485 39.4114 34.7395 39.4121 34.7215C39.413 34.7034 39.5017 34.5917 39.6092 34.4733C39.7168 34.3548 39.8048 34.2322 39.8048 34.2007C39.8048 34.1692 39.8245 34.1434 39.8486 34.1434C39.8727 34.1434 39.8924 34.1139 39.8924 34.078C39.8924 34.042 39.9087 34.0125 39.9285 34.0125C39.9593 34.0125 40.0333 33.8645 40.245 33.38C40.2985 33.2577 40.4 32.9003 40.4618 32.6167C40.5506 32.2088 40.4764 31.2342 40.324 30.8065C40.2315 30.547 39.8855 29.8687 39.8456 29.8687C39.8232 29.8687 39.8048 29.8423 39.8048 29.81C39.8048 29.7777 39.6841 29.608 39.5364 29.4329C39.2635 29.1091 33.7759 23.6313 33.7241 23.6309C33.7086 23.6308 33.636 23.5768 33.5629 23.511C33.4114 23.3744 33.2556 23.2768 32.9733 23.1415C32.8649 23.0896 32.7663 23.0351 32.7543 23.0204C32.7169 22.9747 32.1327 22.7966 31.8566 22.7466C31.5336 22.6882 30.9384 22.689 30.5866 22.7484C29.9305 22.8591 29.1213 23.2613 28.657 23.7075C28.6258 23.7374 28.5874 23.762 28.5717 23.762C28.5559 23.762 27.813 24.4896 26.9206 25.3788C25.3027 26.991 25.2977 26.9955 25.1725 26.9438C25.1034 26.9153 25.0469 26.8747 25.0469 26.8537C25.0469 26.8326 25.0192 26.8153 24.9854 26.8153C24.9516 26.8153 24.8019 26.7466 24.6527 26.6627C24.5036 26.5787 24.3556 26.51 24.3237 26.51C24.2919 26.51 24.2594 26.4953 24.2513 26.4773C24.2354 26.4418 23.9837 26.2976 23.7222 26.1743C23.6319 26.1317 23.5579 26.0818 23.5579 26.0635C23.5579 26.0452 23.5284 26.0302 23.4922 26.0302C23.4561 26.0302 23.4266 26.0106 23.4266 25.9866C23.4266 25.9626 23.4068 25.9429 23.3826 25.9429C23.3437 25.9429 22.6567 25.4922 22.5197 25.3768C22.4906 25.3523 22.4463 25.3323 22.4212 25.3323C22.3961 25.3323 22.3751 25.3176 22.3746 25.2996C22.3741 25.2815 22.2854 25.208 22.1776 25.136C22.0698 25.064 21.9816 24.9904 21.9815 24.9724C21.9815 24.9544 21.9519 24.9397 21.9157 24.9397C21.8796 24.9397 21.85 24.924 21.85 24.9048C21.85 24.8856 21.7614 24.814 21.653 24.7458C21.5446 24.6776 21.4559 24.6092 21.4559 24.5938C21.4559 24.5785 21.4017 24.5337 21.3355 24.4943C21.2693 24.4549 21.1387 24.3525 21.0453 24.2668C20.952 24.1811 20.8632 24.1109 20.848 24.1109C20.8329 24.1109 20.7412 24.0374 20.6444 23.9474C20.5475 23.8574 20.39 23.7253 20.2942 23.6538C20.1986 23.5823 20.0589 23.4645 19.9838 23.392C19.9088 23.3196 19.6539 23.0837 19.4175 22.8678C18.9406 22.4323 17.785 21.277 17.5803 21.0311C17.5081 20.9443 17.3402 20.7626 17.2072 20.6274C17.0743 20.4921 16.907 20.303 16.8355 20.207C16.764 20.111 16.6754 20.0031 16.6387 19.9671C16.6021 19.9311 16.4641 19.7741 16.3322 19.6181C16.2003 19.4622 16.0577 19.3029 16.0153 19.2641C15.9728 19.2253 15.9381 19.1737 15.9381 19.1495C15.9381 19.1252 15.9065 19.0792 15.8678 19.0473C15.8291 19.0153 15.7168 18.8706 15.6182 18.7257C15.5195 18.5808 15.3935 18.4134 15.3381 18.3536C15.2828 18.2939 15.2374 18.2246 15.2374 18.1997C15.2374 18.1747 15.198 18.1261 15.1498 18.0915C15.1017 18.0569 15.0623 18.012 15.0623 17.9917C15.0623 17.9714 15.013 17.8905 14.9528 17.8118C14.8926 17.7332 14.8433 17.6462 14.8433 17.6185C14.8433 17.5907 14.8236 17.568 14.7995 17.568C14.7754 17.568 14.7557 17.5386 14.7557 17.5026C14.7557 17.4666 14.7405 17.4372 14.7219 17.4372C14.7032 17.4372 14.6509 17.3685 14.6055 17.2845C14.5601 17.2005 14.5064 17.1318 14.4861 17.1318C14.4658 17.1318 14.4492 17.0926 14.4492 17.0446C14.4492 16.9966 14.4317 16.9574 14.4105 16.9574C14.3892 16.9574 14.3599 16.923 14.3454 16.881C14.3309 16.8391 14.2821 16.7458 14.237 16.6738C14.1428 16.5234 13.9805 16.2439 13.8952 16.085C13.863 16.025 13.8365 15.9514 13.8363 15.9214C13.8362 15.8914 13.8164 15.8669 13.7923 15.8669C13.7682 15.8669 13.7485 15.8276 13.7485 15.7796C13.7485 15.7317 13.7288 15.6924 13.7047 15.6924C13.6806 15.6924 13.6609 15.6634 13.6609 15.628C13.6609 15.5926 13.6216 15.4994 13.5735 15.4208C13.5254 15.3423 13.486 15.2463 13.4859 15.2074C13.4858 15.1686 13.5961 15.041 13.731 14.9239C14.0723 14.6275 16.3157 12.396 16.5293 12.1404C16.6256 12.0251 16.7636 11.8667 16.8358 11.7884C17.0622 11.5431 17.0946 11.4959 17.3583 11.0251C17.5216 10.7337 17.5899 10.5605 17.6765 10.2182C17.7129 10.0742 17.7618 9.88776 17.7851 9.80379C17.8364 9.61946 17.8082 8.83414 17.7375 8.47768C17.6916 8.24593 17.5974 7.9751 17.4554 7.66645C17.3702 7.48115 17.1018 7.03475 17.0665 7.01944C17.048 7.01141 17.0329 6.98598 17.0329 6.96291C17.0329 6.93984 16.9886 6.87659 16.9344 6.82237C16.8802 6.76815 16.7275 6.59969 16.595 6.44803C16.2976 6.10753 11.6139 1.4335 11.3154 1.17929C11.1161 1.00965 11.0594 0.962415 10.829 0.774459C10.7424 0.703752 10.2921 0.43702 10.1137 0.350741C9.95482 0.273883 9.46654 0.11428 9.2379 0.064467C8.94318 0.000302926 7.98203 -0.0249091 7.94752 0.0306184ZM9.17221 2.17346C9.29264 2.22977 9.41723 2.30122 9.44902 2.33219C9.48086 2.36316 9.52588 2.38851 9.54904 2.38851C9.57221 2.38851 9.64473 2.44294 9.71015 2.50946C9.77558 2.57598 9.87731 2.66392 9.93621 2.70492C10.125 2.83626 14.7901 7.49533 15.1881 7.94997C15.2931 8.06993 15.3996 8.21221 15.4247 8.26621C15.4499 8.32021 15.487 8.36436 15.5072 8.36436C15.5274 8.36436 15.544 8.40361 15.544 8.45159C15.544 8.49958 15.5637 8.53883 15.5878 8.53883C15.6118 8.53883 15.6316 8.58398 15.6316 8.63916C15.6316 8.69434 15.655 8.76282 15.6836 8.7913C15.8049 8.91213 15.7099 10.0219 15.5782 10.0219C15.5594 10.0219 15.544 10.0513 15.544 10.0873C15.544 10.1233 15.5243 10.1527 15.5002 10.1527C15.4761 10.1527 15.4564 10.1755 15.4564 10.2033C15.4564 10.3228 15.0334 10.7868 13.847 11.9686C13.1516 12.6612 12.4952 13.3024 12.3883 13.3934C12.1068 13.6329 11.7778 13.9493 11.7778 13.9806C11.7778 13.9953 11.7393 14.0483 11.6922 14.0982C11.6452 14.1481 11.5565 14.2829 11.4952 14.3978C11.3963 14.5829 11.3837 14.6579 11.3837 15.0602C11.3837 15.3097 11.4062 15.5687 11.4337 15.6358C11.5504 15.9209 11.6043 16.0417 11.7953 16.4461C11.9061 16.6806 11.9968 16.8916 11.9968 16.915C11.9968 16.9383 12.0165 16.9574 12.0406 16.9574C12.0647 16.9574 12.0844 16.9966 12.0844 17.0446C12.0844 17.0926 12.1041 17.1318 12.1282 17.1318C12.1523 17.1318 12.172 17.1613 12.172 17.1973C12.172 17.2333 12.1917 17.2627 12.2158 17.2627C12.2399 17.2627 12.2596 17.2996 12.2596 17.3446C12.2596 17.3896 12.2891 17.4509 12.3252 17.4808C12.3614 17.5107 12.3909 17.5621 12.3909 17.5952C12.3909 17.6282 12.4106 17.6553 12.4347 17.6553C12.4588 17.6553 12.4785 17.6945 12.4785 17.7425C12.4785 17.7905 12.4945 17.8298 12.5141 17.8298C12.5337 17.8298 12.5768 17.8985 12.6099 17.9824C12.643 18.0664 12.6816 18.1351 12.6957 18.1351C12.7098 18.1351 12.7585 18.2038 12.8039 18.2878C12.8493 18.3717 12.903 18.4404 12.9233 18.4404C12.9436 18.4404 12.9602 18.4605 12.9602 18.485C12.9602 18.5379 13.1867 18.8921 13.2339 18.913C13.252 18.921 13.2668 18.9463 13.2668 18.9694C13.2668 18.9923 13.2868 19.0349 13.3112 19.0638C13.4202 19.1931 13.6609 19.528 13.6609 19.5505C13.6609 19.5641 13.72 19.6369 13.7923 19.7122C13.8645 19.7876 13.9237 19.8634 13.9237 19.8809C13.9237 19.8983 13.9926 19.9875 14.0769 20.0792C14.1612 20.1708 14.2302 20.2607 14.2302 20.279C14.2302 20.2972 14.2795 20.3612 14.3397 20.4211C14.3999 20.4811 14.4492 20.5423 14.4492 20.5571C14.4492 20.5719 14.4738 20.6086 14.5039 20.6386C14.534 20.6686 14.6178 20.7679 14.69 20.8592C14.7623 20.9505 14.8707 21.0791 14.9309 21.1451C15.1146 21.3463 15.2374 21.4935 15.2374 21.5125C15.2374 21.5224 15.3212 21.6159 15.4235 21.7202C15.5259 21.8245 15.7377 22.0567 15.8942 22.2362C16.2716 22.6689 18.1897 24.5795 18.4124 24.7445C18.5087 24.8159 18.6791 24.9626 18.7909 25.0706C18.9028 25.1785 19.0605 25.3192 19.1413 25.3831C19.2221 25.447 19.3303 25.5353 19.3818 25.5793C19.4333 25.6234 19.5501 25.7183 19.6413 25.7903C19.7326 25.8623 19.832 25.9457 19.8621 25.9757C19.8923 26.0057 19.9281 26.0302 19.9418 26.0302C19.9556 26.0302 20.0399 26.0989 20.1293 26.1829C20.2187 26.2668 20.3129 26.3355 20.3387 26.3355C20.3645 26.3355 20.414 26.3748 20.4487 26.4228C20.4834 26.4707 20.5323 26.51 20.5573 26.51C20.5824 26.51 20.6519 26.5546 20.7119 26.6091C20.7719 26.6636 20.9884 26.824 21.1932 26.9655C21.3979 27.1071 21.572 27.2392 21.58 27.259C21.588 27.2789 21.6131 27.2951 21.6357 27.2951C21.6862 27.2951 22.0415 27.5225 22.0617 27.5678C22.0697 27.5857 22.1042 27.6005 22.1383 27.6005C22.1724 27.6005 22.2004 27.617 22.2004 27.6371C22.2004 27.6572 22.279 27.7112 22.3751 27.757C22.4711 27.8029 22.5499 27.8551 22.5502 27.8731C22.5505 27.8911 22.5803 27.9058 22.6164 27.9058C22.6525 27.9058 22.6821 27.9254 22.6821 27.9494C22.6821 27.9734 22.7022 27.9931 22.7268 27.9931C22.7513 27.9931 22.8495 28.0421 22.9448 28.1021C23.0402 28.1621 23.1482 28.2112 23.1848 28.2112C23.2214 28.2112 23.2514 28.2308 23.2514 28.2548C23.2514 28.2788 23.2908 28.2984 23.339 28.2984C23.3871 28.2984 23.4266 28.318 23.4266 28.342C23.4266 28.366 23.4524 28.3856 23.4839 28.3856C23.5154 28.3856 23.6557 28.4543 23.7957 28.5383C23.9357 28.6223 24.0774 28.691 24.1106 28.691C24.1439 28.691 24.171 28.7065 24.171 28.7256C24.171 28.7774 24.8238 29.0691 25.025 29.1071C25.2937 29.158 25.8664 29.1179 25.9227 29.0443C25.9348 29.0286 26.0284 28.9789 26.1307 28.934C26.2331 28.889 26.3168 28.8356 26.3168 28.8152C26.3168 28.7949 26.337 28.7782 26.3617 28.7782C26.3864 28.7782 27.2 27.9882 28.1699 27.0225C29.7639 25.4353 30.209 25.0269 30.3448 25.0269C30.3694 25.0269 30.3895 25.0073 30.3895 24.9833C30.3895 24.9593 30.4289 24.9397 30.4771 24.9397C30.5253 24.9397 30.5647 24.9223 30.5647 24.901C30.5647 24.8517 30.7723 24.8072 31.134 24.7789C31.4195 24.7566 31.8784 24.8331 31.8784 24.9031C31.8784 24.9232 31.9087 24.9397 31.9457 24.9397C32.0108 24.9397 32.1602 25.0231 32.3362 25.1578C32.3832 25.1938 33.6759 26.4697 35.209 27.9931C37.9236 30.6907 38.3159 31.1148 38.3159 31.3526C38.3159 31.4001 38.3322 31.439 38.3521 31.439C38.372 31.439 38.4122 31.5679 38.4413 31.7254C38.4949 32.0148 38.4468 32.491 38.3538 32.5927C38.3329 32.6155 38.3159 32.6793 38.3159 32.7345C38.3159 32.7897 38.3011 32.8348 38.2831 32.8349C38.265 32.8349 38.1936 32.9353 38.1245 33.0579C38.0553 33.1805 37.9469 33.3391 37.8836 33.4103C37.7022 33.6141 36.215 35.098 35.9152 35.3741C35.7664 35.5113 35.6446 35.6341 35.6446 35.647C35.6446 35.66 35.5313 35.7914 35.3928 35.939C34.6815 36.6973 34.2044 37.1361 33.9038 37.3084C33.8255 37.3533 33.7615 37.4054 33.7615 37.4243C33.7615 37.4431 33.7372 37.4585 33.7074 37.4585C33.6613 37.4585 33.3637 37.5879 33.0943 37.7251C33.0525 37.7464 32.9797 37.7638 32.9327 37.7638C32.8856 37.7638 32.8349 37.7834 32.82 37.8074C32.8051 37.8314 32.7435 37.851 32.6831 37.851C32.6228 37.851 32.5372 37.8703 32.4929 37.8939C32.4487 37.9175 32.1396 37.9567 31.8061 37.981C31.3276 38.0159 31.0472 38.0112 30.4771 37.9587C29.532 37.8719 29.3687 37.8499 29.3188 37.803C29.2959 37.7814 29.1727 37.7638 29.0451 37.7638C28.9174 37.7638 28.813 37.7462 28.813 37.7248C28.813 37.7033 28.7391 37.6756 28.6488 37.6633C28.5585 37.6509 28.3565 37.608 28.1999 37.5679C28.0434 37.5278 27.8512 37.4846 27.7729 37.4719C27.6946 37.4593 27.6306 37.4314 27.6306 37.4101C27.6306 37.3887 27.5616 37.3712 27.4773 37.3712C27.393 37.3712 27.3241 37.3541 27.3241 37.3332C27.3241 37.3122 27.2486 37.2831 27.1564 37.2684C26.9992 37.2434 26.6085 37.1074 26.4379 37.0183C26.3961 36.9965 26.3317 36.9786 26.2949 36.9786C26.2582 36.9786 26.1938 36.961 26.152 36.9395C26.1102 36.918 25.9873 36.8662 25.8789 36.8245C25.7705 36.7828 25.6227 36.7241 25.5505 36.6939C25.1184 36.514 24.7293 36.3456 24.4995 36.2392C24.355 36.1723 24.1086 36.0616 23.9521 35.9932C23.7955 35.9248 23.6608 35.8535 23.6528 35.8349C23.6448 35.8162 23.6122 35.8009 23.5804 35.8009C23.5486 35.8009 23.4005 35.7322 23.2514 35.6483C23.1022 35.5643 22.9526 35.4956 22.9187 35.4956C22.8849 35.4956 22.857 35.4809 22.8567 35.4629C22.8564 35.4449 22.7283 35.3713 22.572 35.2993C22.4158 35.2273 22.288 35.1537 22.288 35.1357C22.288 35.1177 22.2637 35.103 22.2339 35.103C22.1652 35.103 21.7016 34.874 21.6822 34.8304C21.6741 34.8124 21.6499 34.7977 21.6283 34.7977C21.6067 34.7977 21.4852 34.7333 21.3582 34.6546C21.2313 34.5759 21.0733 34.4843 21.007 34.4509C20.9408 34.4176 20.8866 34.374 20.8866 34.3541C20.8866 34.3342 20.8472 34.3179 20.799 34.3179C20.7509 34.3179 20.7114 34.2982 20.7114 34.2742C20.7114 34.2503 20.6833 34.2306 20.6489 34.2306C20.6145 34.2306 20.5603 34.2061 20.5284 34.1761C20.4966 34.1461 20.4115 34.0922 20.3392 34.0562C20.267 34.0202 20.198 33.9795 20.1859 33.9655C20.1739 33.9516 20.0606 33.8847 19.9341 33.8168C19.8077 33.7489 19.7042 33.6768 19.7042 33.6566C19.7042 33.6364 19.6837 33.62 19.6586 33.62C19.6335 33.62 19.5891 33.6001 19.5601 33.5757C19.4507 33.4842 19.1732 33.3146 19.133 33.3146C19.11 33.3146 19.0911 33.2993 19.0911 33.2805C19.0911 33.2618 18.9631 33.1685 18.8066 33.0733C18.6501 32.9781 18.522 32.8855 18.5219 32.8675C18.5219 32.8495 18.4923 32.8348 18.4562 32.8348C18.42 32.8348 18.3905 32.8152 18.3905 32.7912C18.3905 32.7672 18.3677 32.7476 18.3398 32.7476C18.312 32.7476 18.2247 32.6985 18.1457 32.6385C18.0668 32.5785 17.9901 32.5295 17.9754 32.5295C17.9606 32.5295 17.8993 32.4804 17.8391 32.4204C17.7789 32.3604 17.7137 32.3114 17.6943 32.3114C17.6749 32.3114 17.5971 32.2525 17.5215 32.1805C17.4459 32.1085 17.3727 32.0497 17.3588 32.0497C17.3236 32.0497 17.0142 31.8169 16.9964 31.777C16.9884 31.759 16.9555 31.7443 16.9234 31.7443C16.8913 31.7443 16.8585 31.7293 16.8504 31.7109C16.8424 31.6925 16.7275 31.5999 16.595 31.5052C16.4625 31.4105 16.3246 31.3018 16.2884 31.2638C16.2523 31.2257 16.1439 31.1369 16.0476 31.0665C15.9512 30.996 15.8429 30.9087 15.8067 30.8724C15.7508 30.8164 15.5627 30.6596 15.1783 30.3486C15.1337 30.3126 15.0411 30.234 14.9724 30.174C14.9038 30.114 14.7758 30.0061 14.688 29.9341C14.6002 29.8621 14.4055 29.6855 14.2553 29.5415C14.1051 29.3976 13.857 29.1719 13.704 29.0399C13.3576 28.7414 11.8611 27.249 11.5834 26.9252C11.4703 26.7933 11.2904 26.5985 11.1837 26.4921C11.0769 26.3858 10.9896 26.2865 10.9896 26.2715C10.9896 26.2566 10.9452 26.199 10.8911 26.1436C10.8368 26.0882 10.7105 25.946 10.6104 25.8276C10.5102 25.7092 10.3279 25.5059 10.2053 25.3758C10.0827 25.2457 9.98237 25.1213 9.98237 25.0991C9.98237 25.0771 9.94685 25.0272 9.9035 24.9884C9.8601 24.9496 9.76647 24.8398 9.69548 24.7444C9.62445 24.6489 9.51213 24.5135 9.44591 24.4435C9.3797 24.3734 9.32548 24.3015 9.32548 24.2835C9.32548 24.2657 9.27131 24.1931 9.20506 24.1223C9.13884 24.0515 9.04521 23.9393 8.99704 23.873C8.94887 23.8066 8.88485 23.7264 8.85472 23.6949C8.82463 23.6632 8.79998 23.6252 8.79998 23.6104C8.79998 23.5957 8.75071 23.5345 8.6905 23.4745C8.63028 23.4145 8.58102 23.3504 8.58102 23.332C8.58102 23.3137 8.5462 23.2606 8.50368 23.2141C8.46116 23.1675 8.32912 22.9921 8.21032 22.8242C8.09151 22.6562 7.97852 22.5123 7.95921 22.5043C7.9399 22.4963 7.92413 22.462 7.92413 22.428C7.92413 22.3939 7.9089 22.3662 7.89028 22.3662C7.87167 22.3662 7.81934 22.2975 7.77393 22.2135C7.72852 22.1295 7.67478 22.0608 7.65451 22.0608C7.63419 22.0608 7.61759 22.0351 7.61759 22.0036C7.61759 21.9722 7.58212 21.9084 7.53876 21.8619C7.49541 21.8153 7.42219 21.7135 7.37603 21.6355C7.32992 21.5575 7.27671 21.4938 7.25779 21.4938C7.23892 21.4938 7.22346 21.4643 7.22346 21.4283C7.22346 21.3924 7.20673 21.3629 7.18632 21.3629C7.16587 21.3629 7.11363 21.2844 7.07019 21.1884C7.02675 21.0925 6.9745 21.014 6.95405 21.014C6.93364 21.014 6.91692 20.9845 6.91692 20.9485C6.91692 20.9125 6.89721 20.8831 6.87312 20.8831C6.84904 20.8831 6.82933 20.863 6.82933 20.8386C6.82933 20.7856 6.60288 20.4315 6.55563 20.4106C6.53759 20.4026 6.52279 20.3682 6.52279 20.3342C6.52279 20.3002 6.50308 20.2724 6.47899 20.2724C6.45491 20.2724 6.4352 20.2532 6.4352 20.2296C6.4352 20.2061 6.36623 20.0795 6.28193 19.9482C6.19763 19.817 6.12866 19.689 6.12866 19.6639C6.12866 19.6387 6.11359 19.6181 6.0952 19.6181C6.07681 19.6181 6.02675 19.5446 5.98401 19.4546C5.89249 19.262 5.722 18.9514 5.69073 18.9202C5.65172 18.8814 5.51535 18.6416 5.41778 18.4404C5.36545 18.3325 5.30694 18.2376 5.28772 18.2296C5.26853 18.2216 5.25281 18.1791 5.25281 18.1351C5.25281 18.0911 5.23806 18.0486 5.21997 18.0406C5.17622 18.0212 4.94627 17.5595 4.94627 17.491C4.94627 17.4614 4.93138 17.4372 4.91316 17.4372C4.89494 17.4372 4.85216 17.3734 4.81809 17.2954C4.71851 17.0677 4.50861 16.6081 4.37202 16.3186C4.30248 16.1713 4.24559 16.029 4.24559 16.0024C4.24559 15.9758 4.22589 15.9541 4.2018 15.9541C4.17772 15.9541 4.15801 15.9244 4.15801 15.8881C4.15801 15.8518 4.14032 15.788 4.11873 15.7463C4.09709 15.7047 4.04546 15.5823 4.00399 15.4743C3.96252 15.3664 3.90857 15.2289 3.88413 15.169C3.85974 15.109 3.82466 15.0207 3.80627 14.9727C3.78788 14.9247 3.74352 14.8167 3.70769 14.7328C3.67187 14.6488 3.61818 14.5016 3.58836 14.4056C3.55858 14.3097 3.51689 14.1971 3.49574 14.1554C3.47463 14.1138 3.45733 14.0401 3.45733 13.9919C3.45733 13.9435 3.43763 13.904 3.41354 13.904C3.38946 13.904 3.36966 13.8696 3.36958 13.8277C3.36944 13.7857 3.32062 13.6139 3.26101 13.446C3.20141 13.2781 3.15223 13.1063 3.15171 13.0643C3.15118 13.0224 3.13108 12.988 3.107 12.988C3.08291 12.988 3.0632 12.9303 3.0632 12.8597C3.0632 12.7891 3.0456 12.7206 3.02405 12.7073C3.00251 12.6941 2.97466 12.6095 2.96222 12.5194C2.94978 12.4292 2.90726 12.2181 2.86776 12.0502C2.8283 11.8823 2.78578 11.686 2.77334 11.614C2.76086 11.542 2.73371 11.4439 2.71291 11.3959C2.69215 11.3479 2.66251 11.2007 2.647 11.0688C2.63155 10.9368 2.6015 10.6816 2.58022 10.5017C2.49364 9.76868 2.48554 9.01158 2.55946 8.56064C2.59879 8.32074 2.64153 8.04593 2.65449 7.94997C2.66746 7.85401 2.69574 7.75683 2.71733 7.73406C2.73897 7.71129 2.75666 7.64747 2.75666 7.59229C2.75666 7.53711 2.77142 7.49179 2.7895 7.49158C2.80759 7.4914 2.85918 7.37363 2.90415 7.22986C2.94913 7.08613 3.00334 6.96854 3.02458 6.96854C3.04582 6.96854 3.0632 6.93094 3.0632 6.88492C3.0632 6.83894 3.07932 6.7948 3.09907 6.78677C3.11878 6.77879 3.18285 6.69164 3.2414 6.59315C3.42896 6.27756 3.70866 5.97999 5.40845 4.2876C7.07466 2.62867 7.37257 2.34886 7.47527 2.34628C7.50539 2.3455 7.53001 2.32526 7.53001 2.30127C7.53001 2.27728 7.56942 2.25765 7.61759 2.25765C7.66576 2.25765 7.70517 2.23802 7.70517 2.21403C7.70517 2.19004 7.74065 2.17041 7.784 2.17041C7.82735 2.17041 7.88157 2.15244 7.90443 2.1305C7.97344 2.06424 8.14493 2.0454 8.55912 2.05853C8.86273 2.06817 9.00352 2.09455 9.17221 2.17346Z" fill="#E8492A"/>
</svg>
